<mxfile host="app.diagrams.net" agent="Mozilla/5.0 (Windows NT 10.0; Win64; x64) AppleWebKit/537.36 (KHTML, like Gecko) Chrome/131.0.0.0 Safari/537.36" version="25.0.3">
  <diagram name="Page-1" id="PuFN-wMOv0jWiG4jprAx">
    <mxGraphModel dx="3096" dy="1592" grid="1" gridSize="10" guides="1" tooltips="1" connect="1" arrows="1" fold="1" page="1" pageScale="1" pageWidth="2030" pageHeight="1520" background="none" math="0" shadow="0">
      <root>
        <mxCell id="0" />
        <mxCell id="DKlUDa0g7rmCu-vv5rfz-316" value="Spellbook borders" style="locked=1;" parent="0" visible="0" />
        <mxCell id="DKlUDa0g7rmCu-vv5rfz-317" value="" style="rounded=1;fontFamily=Helvetica;fontSize=11;fontColor=default;labelBackgroundColor=none;fillColor=#FCF4C4;strokeColor=#667788;opacity=30;glass=0;shadow=0;align=center;verticalAlign=middle;gradientColor=none;strokeWidth=2;" parent="DKlUDa0g7rmCu-vv5rfz-316" vertex="1">
          <mxGeometry x="10" y="40" width="1180" height="140" as="geometry" />
        </mxCell>
        <mxCell id="DKlUDa0g7rmCu-vv5rfz-318" value="" style="rounded=1;fontFamily=Helvetica;fontSize=11;fontColor=default;labelBackgroundColor=none;fillColor=#667788;strokeColor=#667788;opacity=30;glass=0;shadow=0;align=center;verticalAlign=middle;gradientColor=none;strokeWidth=2;" parent="DKlUDa0g7rmCu-vv5rfz-316" vertex="1">
          <mxGeometry x="10" y="200" width="1180" height="260" as="geometry" />
        </mxCell>
        <mxCell id="DKlUDa0g7rmCu-vv5rfz-319" value="" style="rounded=1;fontFamily=Helvetica;fontSize=11;fontColor=default;labelBackgroundColor=none;fillColor=#FCF4C4;strokeColor=#667788;opacity=30;glass=0;shadow=0;align=center;verticalAlign=middle;gradientColor=none;strokeWidth=2;" parent="DKlUDa0g7rmCu-vv5rfz-316" vertex="1">
          <mxGeometry x="10" y="480" width="1180" height="270" as="geometry" />
        </mxCell>
        <mxCell id="4LNg5v-IOajOxHjOTWhF-1" value="Inspiration" style="text;align=center;verticalAlign=middle;whiteSpace=wrap;rounded=0;fontStyle=1;fontSize=16;fontFamily=Georgia;fontColor=#667788;strokeColor=none;" parent="DKlUDa0g7rmCu-vv5rfz-316" vertex="1">
          <mxGeometry x="10" y="420" width="140" height="40" as="geometry" />
        </mxCell>
        <mxCell id="4LNg5v-IOajOxHjOTWhF-2" value="Justice" style="text;align=center;verticalAlign=middle;whiteSpace=wrap;rounded=0;fontStyle=1;fontSize=16;fontFamily=Georgia;fontColor=#667788;strokeColor=none;" parent="DKlUDa0g7rmCu-vv5rfz-316" vertex="1">
          <mxGeometry x="10" y="710" width="140" height="40" as="geometry" />
        </mxCell>
        <mxCell id="4LNg5v-IOajOxHjOTWhF-4" value="Sacrifice" style="text;align=center;verticalAlign=middle;whiteSpace=wrap;rounded=0;fontStyle=1;fontSize=16;fontFamily=Georgia;fontColor=#667788;strokeColor=none;" parent="DKlUDa0g7rmCu-vv5rfz-316" vertex="1">
          <mxGeometry x="10" y="140" width="140" height="40" as="geometry" />
        </mxCell>
        <mxCell id="DKlUDa0g7rmCu-vv5rfz-14" value="Shapes and Lines" style="locked=1;" parent="0" />
        <mxCell id="u5JJ2iUTMlOG-NKWuYbm-9" style="edgeStyle=orthogonalEdgeStyle;shape=connector;curved=0;rounded=1;jumpStyle=arc;orthogonalLoop=1;jettySize=auto;html=1;exitX=1;exitY=0;exitDx=0;exitDy=0;dashed=1;strokeColor=#667788;strokeWidth=2;align=center;verticalAlign=middle;fontFamily=Helvetica;fontSize=11;fontColor=default;labelBackgroundColor=default;endArrow=none;endFill=0;" parent="DKlUDa0g7rmCu-vv5rfz-14" source="bMIZUlVMKYhtr8G9Qs2D-71" edge="1">
          <mxGeometry relative="1" as="geometry">
            <mxPoint x="420" y="580" as="targetPoint" />
            <Array as="points">
              <mxPoint x="400" y="420" />
              <mxPoint x="400" y="580" />
            </Array>
          </mxGeometry>
        </mxCell>
        <mxCell id="ByqBd_FR368xJn7YFOeK-60" style="edgeStyle=orthogonalEdgeStyle;shape=connector;curved=0;rounded=1;orthogonalLoop=1;jettySize=auto;html=1;exitX=1;exitY=0.5;exitDx=0;exitDy=0;entryX=0;entryY=0.5;entryDx=0;entryDy=0;strokeColor=#667788;strokeWidth=2;align=center;verticalAlign=middle;fontFamily=Helvetica;fontSize=11;fontColor=default;labelBackgroundColor=default;endArrow=classic;endFill=1;dashed=1;" edge="1" parent="DKlUDa0g7rmCu-vv5rfz-14" source="DKlUDa0g7rmCu-vv5rfz-31" target="ByqBd_FR368xJn7YFOeK-1">
          <mxGeometry relative="1" as="geometry" />
        </mxCell>
        <mxCell id="ByqBd_FR368xJn7YFOeK-61" style="edgeStyle=orthogonalEdgeStyle;shape=connector;curved=0;rounded=1;orthogonalLoop=1;jettySize=auto;html=1;exitX=1;exitY=0.5;exitDx=0;exitDy=0;entryX=0;entryY=0.5;entryDx=0;entryDy=0;strokeColor=#667788;strokeWidth=2;align=center;verticalAlign=middle;fontFamily=Helvetica;fontSize=11;fontColor=default;labelBackgroundColor=default;endArrow=classic;endFill=1;dashed=1;" edge="1" parent="DKlUDa0g7rmCu-vv5rfz-14" source="DKlUDa0g7rmCu-vv5rfz-31" target="ByqBd_FR368xJn7YFOeK-3">
          <mxGeometry relative="1" as="geometry">
            <Array as="points">
              <mxPoint x="500" y="160" />
              <mxPoint x="500" y="100" />
            </Array>
          </mxGeometry>
        </mxCell>
        <mxCell id="ByqBd_FR368xJn7YFOeK-99" style="edgeStyle=orthogonalEdgeStyle;shape=connector;curved=0;rounded=1;orthogonalLoop=1;jettySize=auto;html=1;exitX=1;exitY=0.5;exitDx=0;exitDy=0;entryX=0;entryY=0.5;entryDx=0;entryDy=0;dashed=1;strokeColor=#667788;strokeWidth=2;align=center;verticalAlign=middle;fontFamily=Helvetica;fontSize=11;fontColor=default;labelBackgroundColor=default;endArrow=classic;endFill=1;" edge="1" parent="DKlUDa0g7rmCu-vv5rfz-14" source="DKlUDa0g7rmCu-vv5rfz-31" target="ByqBd_FR368xJn7YFOeK-50">
          <mxGeometry relative="1" as="geometry" />
        </mxCell>
        <mxCell id="DKlUDa0g7rmCu-vv5rfz-31" value="Geyser" style="rounded=1;strokeWidth=2;strokeColor=#667788;textShadow=0;labelBackgroundColor=none;whiteSpace=wrap;fontSize=15;fontFamily=Georgia;fillColor=none;fontColor=#000000;" parent="DKlUDa0g7rmCu-vv5rfz-14" vertex="1">
          <mxGeometry x="20" y="140" width="160" height="40" as="geometry" />
        </mxCell>
        <mxCell id="ByqBd_FR368xJn7YFOeK-58" style="edgeStyle=orthogonalEdgeStyle;rounded=1;orthogonalLoop=1;jettySize=auto;html=1;exitX=1;exitY=0.75;exitDx=0;exitDy=0;entryX=0;entryY=0.5;entryDx=0;entryDy=0;strokeWidth=2;curved=0;strokeColor=#667788;endArrow=none;endFill=0;" edge="1" parent="DKlUDa0g7rmCu-vv5rfz-14" source="ByqBd_FR368xJn7YFOeK-1" target="ByqBd_FR368xJn7YFOeK-6">
          <mxGeometry relative="1" as="geometry">
            <Array as="points">
              <mxPoint x="1000" y="230" />
              <mxPoint x="1000" y="260" />
              <mxPoint x="1200" y="260" />
              <mxPoint x="1200" y="220" />
            </Array>
          </mxGeometry>
        </mxCell>
        <mxCell id="ByqBd_FR368xJn7YFOeK-65" style="edgeStyle=orthogonalEdgeStyle;shape=connector;curved=0;rounded=1;orthogonalLoop=1;jettySize=auto;html=1;exitX=1;exitY=0.5;exitDx=0;exitDy=0;strokeColor=#667788;strokeWidth=2;align=center;verticalAlign=middle;fontFamily=Helvetica;fontSize=11;fontColor=default;labelBackgroundColor=default;endArrow=classic;endFill=1;dashed=1;" edge="1" parent="DKlUDa0g7rmCu-vv5rfz-14" source="ByqBd_FR368xJn7YFOeK-1">
          <mxGeometry relative="1" as="geometry">
            <mxPoint x="1020" y="219.8571428571429" as="targetPoint" />
          </mxGeometry>
        </mxCell>
        <mxCell id="ByqBd_FR368xJn7YFOeK-1" value="Ice Patch" style="rounded=1;strokeWidth=2;strokeColor=#667788;textShadow=0;labelBackgroundColor=none;whiteSpace=wrap;fontSize=15;fontFamily=Georgia;fillColor=none;fontColor=#000000;" vertex="1" parent="DKlUDa0g7rmCu-vv5rfz-14">
          <mxGeometry x="620" y="200" width="160" height="40" as="geometry" />
        </mxCell>
        <mxCell id="ByqBd_FR368xJn7YFOeK-2" value="Frost Scythe" style="rounded=1;strokeWidth=2;strokeColor=#667788;textShadow=0;labelBackgroundColor=none;whiteSpace=wrap;fontSize=15;fontFamily=Georgia;fillColor=none;fontColor=#000000;" vertex="1" parent="DKlUDa0g7rmCu-vv5rfz-14">
          <mxGeometry x="1020" y="200" width="160" height="40" as="geometry" />
        </mxCell>
        <mxCell id="ByqBd_FR368xJn7YFOeK-57" style="edgeStyle=orthogonalEdgeStyle;rounded=1;orthogonalLoop=1;jettySize=auto;html=1;exitX=1;exitY=0.25;exitDx=0;exitDy=0;entryX=0;entryY=0.5;entryDx=0;entryDy=0;curved=0;strokeWidth=2;strokeColor=#667788;endArrow=none;endFill=0;" edge="1" parent="DKlUDa0g7rmCu-vv5rfz-14" source="ByqBd_FR368xJn7YFOeK-3" target="ByqBd_FR368xJn7YFOeK-7">
          <mxGeometry relative="1" as="geometry">
            <Array as="points">
              <mxPoint x="1000" y="90" />
              <mxPoint x="1000" y="60" />
              <mxPoint x="1200" y="60" />
              <mxPoint x="1200" y="100" />
            </Array>
          </mxGeometry>
        </mxCell>
        <mxCell id="ByqBd_FR368xJn7YFOeK-62" style="edgeStyle=orthogonalEdgeStyle;shape=connector;curved=0;rounded=1;orthogonalLoop=1;jettySize=auto;html=1;exitX=1;exitY=0.5;exitDx=0;exitDy=0;entryX=0;entryY=0.5;entryDx=0;entryDy=0;strokeColor=#667788;strokeWidth=2;align=center;verticalAlign=middle;fontFamily=Helvetica;fontSize=11;fontColor=default;labelBackgroundColor=default;endArrow=classic;endFill=1;dashed=1;" edge="1" parent="DKlUDa0g7rmCu-vv5rfz-14" source="ByqBd_FR368xJn7YFOeK-3" target="ByqBd_FR368xJn7YFOeK-4">
          <mxGeometry relative="1" as="geometry" />
        </mxCell>
        <mxCell id="ByqBd_FR368xJn7YFOeK-63" style="edgeStyle=orthogonalEdgeStyle;shape=connector;curved=0;rounded=1;orthogonalLoop=1;jettySize=auto;html=1;exitX=1;exitY=0.5;exitDx=0;exitDy=0;entryX=0;entryY=0.5;entryDx=0;entryDy=0;strokeColor=#667788;strokeWidth=2;align=center;verticalAlign=middle;fontFamily=Helvetica;fontSize=11;fontColor=default;labelBackgroundColor=default;endArrow=classic;endFill=1;dashed=1;" edge="1" parent="DKlUDa0g7rmCu-vv5rfz-14" source="ByqBd_FR368xJn7YFOeK-3" target="ByqBd_FR368xJn7YFOeK-5">
          <mxGeometry relative="1" as="geometry" />
        </mxCell>
        <mxCell id="ByqBd_FR368xJn7YFOeK-64" style="edgeStyle=orthogonalEdgeStyle;shape=connector;curved=0;rounded=1;orthogonalLoop=1;jettySize=auto;html=1;exitX=1;exitY=0.5;exitDx=0;exitDy=0;entryX=0;entryY=0.5;entryDx=0;entryDy=0;strokeColor=#667788;strokeWidth=2;align=center;verticalAlign=middle;fontFamily=Helvetica;fontSize=11;fontColor=default;labelBackgroundColor=default;endArrow=classic;endFill=1;dashed=1;" edge="1" parent="DKlUDa0g7rmCu-vv5rfz-14" source="ByqBd_FR368xJn7YFOeK-3" target="ByqBd_FR368xJn7YFOeK-2">
          <mxGeometry relative="1" as="geometry" />
        </mxCell>
        <mxCell id="ByqBd_FR368xJn7YFOeK-3" value="Frostbite" style="rounded=1;strokeWidth=2;strokeColor=#667788;textShadow=0;labelBackgroundColor=none;whiteSpace=wrap;fontSize=15;fontFamily=Georgia;fillColor=none;fontColor=#000000;" vertex="1" parent="DKlUDa0g7rmCu-vv5rfz-14">
          <mxGeometry x="820" y="80" width="160" height="40" as="geometry" />
        </mxCell>
        <mxCell id="ByqBd_FR368xJn7YFOeK-4" value="Rising Mists" style="rounded=1;strokeWidth=2;strokeColor=#667788;textShadow=0;labelBackgroundColor=none;whiteSpace=wrap;fontSize=15;fontFamily=Georgia;fillColor=none;fontColor=#000000;" vertex="1" parent="DKlUDa0g7rmCu-vv5rfz-14">
          <mxGeometry x="1020" y="80" width="160" height="40" as="geometry" />
        </mxCell>
        <mxCell id="ByqBd_FR368xJn7YFOeK-5" value="Veil of Ice" style="rounded=1;strokeWidth=2;strokeColor=#667788;textShadow=0;labelBackgroundColor=none;whiteSpace=wrap;fontSize=15;fontFamily=Georgia;fillColor=none;fontColor=#000000;fontStyle=1" vertex="1" parent="DKlUDa0g7rmCu-vv5rfz-14">
          <mxGeometry x="1020" y="140" width="160" height="40" as="geometry" />
        </mxCell>
        <mxCell id="ByqBd_FR368xJn7YFOeK-6" value="Fortress of Ice" style="rounded=1;strokeWidth=2;strokeColor=#667788;textShadow=0;labelBackgroundColor=none;whiteSpace=wrap;fontSize=15;fontFamily=Georgia;fillColor=none;fontColor=#000000;fontStyle=1" vertex="1" parent="DKlUDa0g7rmCu-vv5rfz-14">
          <mxGeometry x="1220" y="200" width="160" height="40" as="geometry" />
        </mxCell>
        <mxCell id="ByqBd_FR368xJn7YFOeK-7" value="Rimefang" style="rounded=1;strokeWidth=2;strokeColor=#667788;textShadow=0;labelBackgroundColor=none;whiteSpace=wrap;fontSize=15;fontFamily=Georgia;fillColor=none;fontColor=#000000;fontStyle=1" vertex="1" parent="DKlUDa0g7rmCu-vv5rfz-14">
          <mxGeometry x="1220" y="80" width="160" height="40" as="geometry" />
        </mxCell>
        <mxCell id="ByqBd_FR368xJn7YFOeK-66" style="edgeStyle=orthogonalEdgeStyle;shape=connector;curved=0;rounded=1;orthogonalLoop=1;jettySize=auto;html=1;exitX=1;exitY=0.5;exitDx=0;exitDy=0;entryX=0;entryY=0.5;entryDx=0;entryDy=0;dashed=1;strokeColor=#667788;strokeWidth=2;align=center;verticalAlign=middle;fontFamily=Helvetica;fontSize=11;fontColor=default;labelBackgroundColor=default;endArrow=classic;endFill=1;" edge="1" parent="DKlUDa0g7rmCu-vv5rfz-14" source="ByqBd_FR368xJn7YFOeK-8" target="ByqBd_FR368xJn7YFOeK-12">
          <mxGeometry relative="1" as="geometry" />
        </mxCell>
        <mxCell id="ByqBd_FR368xJn7YFOeK-68" style="edgeStyle=orthogonalEdgeStyle;shape=connector;curved=0;rounded=1;orthogonalLoop=1;jettySize=auto;html=1;exitX=1;exitY=0.5;exitDx=0;exitDy=0;entryX=0;entryY=0.5;entryDx=0;entryDy=0;dashed=1;strokeColor=#667788;strokeWidth=2;align=center;verticalAlign=middle;fontFamily=Helvetica;fontSize=11;fontColor=default;labelBackgroundColor=default;endArrow=classic;endFill=1;" edge="1" parent="DKlUDa0g7rmCu-vv5rfz-14" source="ByqBd_FR368xJn7YFOeK-8" target="ByqBd_FR368xJn7YFOeK-13">
          <mxGeometry relative="1" as="geometry" />
        </mxCell>
        <mxCell id="ByqBd_FR368xJn7YFOeK-69" style="edgeStyle=orthogonalEdgeStyle;shape=connector;curved=0;rounded=1;orthogonalLoop=1;jettySize=auto;html=1;exitX=1;exitY=0.5;exitDx=0;exitDy=0;entryX=0;entryY=0.5;entryDx=0;entryDy=0;dashed=1;strokeColor=#667788;strokeWidth=2;align=center;verticalAlign=middle;fontFamily=Helvetica;fontSize=11;fontColor=default;labelBackgroundColor=default;endArrow=classic;endFill=1;" edge="1" parent="DKlUDa0g7rmCu-vv5rfz-14" source="ByqBd_FR368xJn7YFOeK-8" target="ByqBd_FR368xJn7YFOeK-17">
          <mxGeometry relative="1" as="geometry">
            <Array as="points">
              <mxPoint x="400" y="380" />
              <mxPoint x="400" y="480" />
            </Array>
          </mxGeometry>
        </mxCell>
        <mxCell id="ByqBd_FR368xJn7YFOeK-76" style="edgeStyle=orthogonalEdgeStyle;shape=connector;curved=0;rounded=1;orthogonalLoop=1;jettySize=auto;html=1;exitX=1;exitY=0.5;exitDx=0;exitDy=0;entryX=0;entryY=0.5;entryDx=0;entryDy=0;dashed=1;strokeColor=#667788;strokeWidth=2;align=center;verticalAlign=middle;fontFamily=Helvetica;fontSize=11;fontColor=default;labelBackgroundColor=default;endArrow=classic;endFill=1;" edge="1" parent="DKlUDa0g7rmCu-vv5rfz-14" source="ByqBd_FR368xJn7YFOeK-8" target="ByqBd_FR368xJn7YFOeK-18">
          <mxGeometry relative="1" as="geometry">
            <Array as="points">
              <mxPoint x="400" y="380" />
              <mxPoint x="400" y="320" />
            </Array>
          </mxGeometry>
        </mxCell>
        <mxCell id="ByqBd_FR368xJn7YFOeK-100" style="edgeStyle=orthogonalEdgeStyle;shape=connector;curved=0;rounded=1;orthogonalLoop=1;jettySize=auto;html=1;exitX=1;exitY=0.5;exitDx=0;exitDy=0;dashed=1;strokeColor=#667788;strokeWidth=2;align=center;verticalAlign=middle;fontFamily=Helvetica;fontSize=11;fontColor=default;labelBackgroundColor=default;endArrow=none;endFill=0;" edge="1" parent="DKlUDa0g7rmCu-vv5rfz-14" source="ByqBd_FR368xJn7YFOeK-8">
          <mxGeometry relative="1" as="geometry">
            <mxPoint x="200" y="400.0000000000002" as="targetPoint" />
          </mxGeometry>
        </mxCell>
        <mxCell id="ByqBd_FR368xJn7YFOeK-8" value="Air Lash" style="rounded=1;strokeWidth=2;strokeColor=#667788;textShadow=0;labelBackgroundColor=none;whiteSpace=wrap;fontSize=15;fontFamily=Georgia;fillColor=none;fontColor=#000000;" vertex="1" parent="DKlUDa0g7rmCu-vv5rfz-14">
          <mxGeometry x="20" y="360" width="160" height="40" as="geometry" />
        </mxCell>
        <mxCell id="ByqBd_FR368xJn7YFOeK-9" value="Icy Infusions" style="rounded=1;strokeWidth=2;strokeColor=#667788;textShadow=0;labelBackgroundColor=none;whiteSpace=wrap;fontSize=15;fontFamily=Georgia;fillColor=none;fontColor=#000000;fontStyle=1" vertex="1" parent="DKlUDa0g7rmCu-vv5rfz-14">
          <mxGeometry x="1610" y="200" width="160" height="40" as="geometry" />
        </mxCell>
        <mxCell id="ByqBd_FR368xJn7YFOeK-10" value="Air Bubble" style="rounded=1;strokeWidth=2;strokeColor=#667788;textShadow=0;labelBackgroundColor=none;whiteSpace=wrap;fontSize=15;fontFamily=Georgia;fillColor=none;fontColor=#000000;" vertex="1" parent="DKlUDa0g7rmCu-vv5rfz-14">
          <mxGeometry x="620" y="360" width="160" height="40" as="geometry" />
        </mxCell>
        <mxCell id="ByqBd_FR368xJn7YFOeK-11" value="Swirling Winds" style="rounded=1;strokeWidth=2;strokeColor=#667788;textShadow=0;labelBackgroundColor=none;whiteSpace=wrap;fontSize=15;fontFamily=Georgia;fillColor=none;fontColor=#000000;" vertex="1" parent="DKlUDa0g7rmCu-vv5rfz-14">
          <mxGeometry x="620" y="420" width="160" height="40" as="geometry" />
        </mxCell>
        <mxCell id="ByqBd_FR368xJn7YFOeK-70" style="edgeStyle=orthogonalEdgeStyle;shape=connector;curved=0;rounded=1;orthogonalLoop=1;jettySize=auto;html=1;exitX=1;exitY=0.5;exitDx=0;exitDy=0;entryX=0;entryY=0.5;entryDx=0;entryDy=0;dashed=1;strokeColor=#667788;strokeWidth=2;align=center;verticalAlign=middle;fontFamily=Helvetica;fontSize=11;fontColor=default;labelBackgroundColor=default;endArrow=classic;endFill=1;" edge="1" parent="DKlUDa0g7rmCu-vv5rfz-14" source="ByqBd_FR368xJn7YFOeK-12" target="ByqBd_FR368xJn7YFOeK-10">
          <mxGeometry relative="1" as="geometry" />
        </mxCell>
        <mxCell id="ByqBd_FR368xJn7YFOeK-73" style="edgeStyle=orthogonalEdgeStyle;shape=connector;curved=0;rounded=1;orthogonalLoop=1;jettySize=auto;html=1;exitX=1;exitY=0.5;exitDx=0;exitDy=0;entryX=0;entryY=0.5;entryDx=0;entryDy=0;dashed=1;strokeColor=#667788;strokeWidth=2;align=center;verticalAlign=middle;fontFamily=Helvetica;fontSize=11;fontColor=default;labelBackgroundColor=default;endArrow=classic;endFill=1;" edge="1" parent="DKlUDa0g7rmCu-vv5rfz-14" source="ByqBd_FR368xJn7YFOeK-12" target="ByqBd_FR368xJn7YFOeK-11">
          <mxGeometry relative="1" as="geometry" />
        </mxCell>
        <mxCell id="ByqBd_FR368xJn7YFOeK-12" value="Tailwind" style="rounded=1;strokeWidth=2;strokeColor=#667788;textShadow=0;labelBackgroundColor=none;whiteSpace=wrap;fontSize=15;fontFamily=Georgia;fillColor=none;fontColor=#000000;" vertex="1" parent="DKlUDa0g7rmCu-vv5rfz-14">
          <mxGeometry x="420" y="360" width="160" height="40" as="geometry" />
        </mxCell>
        <mxCell id="ByqBd_FR368xJn7YFOeK-71" style="edgeStyle=orthogonalEdgeStyle;shape=connector;curved=0;rounded=1;orthogonalLoop=1;jettySize=auto;html=1;exitX=1;exitY=0.5;exitDx=0;exitDy=0;entryX=0;entryY=0.5;entryDx=0;entryDy=0;dashed=1;strokeColor=#667788;strokeWidth=2;align=center;verticalAlign=middle;fontFamily=Helvetica;fontSize=11;fontColor=default;labelBackgroundColor=default;endArrow=classic;endFill=1;" edge="1" parent="DKlUDa0g7rmCu-vv5rfz-14" source="ByqBd_FR368xJn7YFOeK-13" target="ByqBd_FR368xJn7YFOeK-11">
          <mxGeometry relative="1" as="geometry" />
        </mxCell>
        <mxCell id="ByqBd_FR368xJn7YFOeK-72" style="edgeStyle=orthogonalEdgeStyle;shape=connector;curved=0;rounded=1;orthogonalLoop=1;jettySize=auto;html=1;exitX=1;exitY=0.5;exitDx=0;exitDy=0;entryX=0;entryY=0.5;entryDx=0;entryDy=0;dashed=1;strokeColor=#667788;strokeWidth=2;align=center;verticalAlign=middle;fontFamily=Helvetica;fontSize=11;fontColor=default;labelBackgroundColor=default;endArrow=classic;endFill=1;" edge="1" parent="DKlUDa0g7rmCu-vv5rfz-14" source="ByqBd_FR368xJn7YFOeK-13" target="ByqBd_FR368xJn7YFOeK-10">
          <mxGeometry relative="1" as="geometry" />
        </mxCell>
        <mxCell id="ByqBd_FR368xJn7YFOeK-74" style="edgeStyle=orthogonalEdgeStyle;shape=connector;curved=0;rounded=1;orthogonalLoop=1;jettySize=auto;html=1;exitX=1;exitY=0.5;exitDx=0;exitDy=0;entryX=0;entryY=0.5;entryDx=0;entryDy=0;dashed=1;strokeColor=#667788;strokeWidth=2;align=center;verticalAlign=middle;fontFamily=Helvetica;fontSize=11;fontColor=default;labelBackgroundColor=default;endArrow=classic;endFill=1;" edge="1" parent="DKlUDa0g7rmCu-vv5rfz-14" source="ByqBd_FR368xJn7YFOeK-13" target="ByqBd_FR368xJn7YFOeK-15">
          <mxGeometry relative="1" as="geometry">
            <Array as="points">
              <mxPoint x="600" y="440" />
              <mxPoint x="600" y="350" />
            </Array>
          </mxGeometry>
        </mxCell>
        <mxCell id="ByqBd_FR368xJn7YFOeK-13" value="Zephyr" style="rounded=1;strokeWidth=2;strokeColor=#667788;textShadow=0;labelBackgroundColor=none;whiteSpace=wrap;fontSize=15;fontFamily=Georgia;fillColor=none;fontColor=#000000;fontStyle=0" vertex="1" parent="DKlUDa0g7rmCu-vv5rfz-14">
          <mxGeometry x="420" y="420" width="160" height="40" as="geometry" />
        </mxCell>
        <mxCell id="ByqBd_FR368xJn7YFOeK-14" value="Vertigo" style="rounded=1;strokeWidth=2;strokeColor=#667788;textShadow=0;labelBackgroundColor=none;whiteSpace=wrap;fontSize=15;fontFamily=Georgia;fillColor=none;fontColor=#000000;" vertex="1" parent="DKlUDa0g7rmCu-vv5rfz-14">
          <mxGeometry x="1020" y="400" width="160" height="40" as="geometry" />
        </mxCell>
        <mxCell id="ByqBd_FR368xJn7YFOeK-77" style="edgeStyle=orthogonalEdgeStyle;shape=connector;curved=0;rounded=1;orthogonalLoop=1;jettySize=auto;html=1;exitX=1;exitY=0.5;exitDx=0;exitDy=0;entryX=0;entryY=0.5;entryDx=0;entryDy=0;strokeColor=#667788;strokeWidth=2;align=center;verticalAlign=middle;fontFamily=Helvetica;fontSize=11;fontColor=default;labelBackgroundColor=default;endArrow=none;endFill=0;" edge="1" parent="DKlUDa0g7rmCu-vv5rfz-14" source="ByqBd_FR368xJn7YFOeK-15" target="ByqBd_FR368xJn7YFOeK-18">
          <mxGeometry relative="1" as="geometry">
            <Array as="points">
              <mxPoint x="1200" y="350" />
              <mxPoint x="1200" y="320" />
            </Array>
          </mxGeometry>
        </mxCell>
        <mxCell id="ByqBd_FR368xJn7YFOeK-15" value="Y&#39;ntrel Sechra" style="rounded=1;strokeWidth=2;strokeColor=#667788;textShadow=0;labelBackgroundColor=none;whiteSpace=wrap;fontSize=15;fontFamily=Georgia;fillColor=none;fontColor=#000000;" vertex="1" parent="DKlUDa0g7rmCu-vv5rfz-14">
          <mxGeometry x="820" y="330" width="160" height="40" as="geometry" />
        </mxCell>
        <mxCell id="ByqBd_FR368xJn7YFOeK-80" style="edgeStyle=orthogonalEdgeStyle;shape=connector;curved=0;rounded=1;orthogonalLoop=1;jettySize=auto;html=1;exitX=1;exitY=0.5;exitDx=0;exitDy=0;entryX=0;entryY=0.5;entryDx=0;entryDy=0;strokeColor=#667788;strokeWidth=2;align=center;verticalAlign=middle;fontFamily=Helvetica;fontSize=11;fontColor=default;labelBackgroundColor=default;endArrow=none;endFill=0;" edge="1" parent="DKlUDa0g7rmCu-vv5rfz-14" source="ByqBd_FR368xJn7YFOeK-16" target="ByqBd_FR368xJn7YFOeK-19">
          <mxGeometry relative="1" as="geometry" />
        </mxCell>
        <mxCell id="ByqBd_FR368xJn7YFOeK-16" value="Thunderclap" style="rounded=1;strokeWidth=2;strokeColor=#667788;textShadow=0;labelBackgroundColor=none;whiteSpace=wrap;fontSize=15;fontFamily=Georgia;fillColor=none;fontColor=#000000;" vertex="1" parent="DKlUDa0g7rmCu-vv5rfz-14">
          <mxGeometry x="1020" y="460" width="160" height="40" as="geometry" />
        </mxCell>
        <mxCell id="ByqBd_FR368xJn7YFOeK-78" style="edgeStyle=orthogonalEdgeStyle;shape=connector;curved=0;rounded=1;orthogonalLoop=1;jettySize=auto;html=1;exitX=1;exitY=0.5;exitDx=0;exitDy=0;entryX=0;entryY=0.5;entryDx=0;entryDy=0;strokeColor=#667788;strokeWidth=2;align=center;verticalAlign=middle;fontFamily=Helvetica;fontSize=11;fontColor=default;labelBackgroundColor=default;endArrow=none;endFill=0;" edge="1" parent="DKlUDa0g7rmCu-vv5rfz-14" source="ByqBd_FR368xJn7YFOeK-17" target="ByqBd_FR368xJn7YFOeK-16">
          <mxGeometry relative="1" as="geometry" />
        </mxCell>
        <mxCell id="ByqBd_FR368xJn7YFOeK-79" style="edgeStyle=orthogonalEdgeStyle;shape=connector;curved=0;rounded=1;orthogonalLoop=1;jettySize=auto;html=1;exitX=1;exitY=0.5;exitDx=0;exitDy=0;entryX=0;entryY=0.5;entryDx=0;entryDy=0;strokeColor=#667788;strokeWidth=2;align=center;verticalAlign=middle;fontFamily=Helvetica;fontSize=11;fontColor=default;labelBackgroundColor=default;endArrow=none;endFill=0;" edge="1" parent="DKlUDa0g7rmCu-vv5rfz-14" source="ByqBd_FR368xJn7YFOeK-17" target="ByqBd_FR368xJn7YFOeK-14">
          <mxGeometry relative="1" as="geometry" />
        </mxCell>
        <mxCell id="ByqBd_FR368xJn7YFOeK-111" style="edgeStyle=orthogonalEdgeStyle;shape=connector;curved=0;rounded=1;orthogonalLoop=1;jettySize=auto;html=1;exitX=1;exitY=0.75;exitDx=0;exitDy=0;entryX=0;entryY=0.5;entryDx=0;entryDy=0;strokeColor=#667788;strokeWidth=2;align=center;verticalAlign=middle;fontFamily=Helvetica;fontSize=11;fontColor=default;labelBackgroundColor=default;endArrow=none;endFill=0;" edge="1" parent="DKlUDa0g7rmCu-vv5rfz-14" source="ByqBd_FR368xJn7YFOeK-17" target="ByqBd_FR368xJn7YFOeK-55">
          <mxGeometry relative="1" as="geometry">
            <Array as="points">
              <mxPoint x="990" y="490" />
              <mxPoint x="990" y="1200" />
            </Array>
          </mxGeometry>
        </mxCell>
        <mxCell id="ByqBd_FR368xJn7YFOeK-17" value="Paeldryth&#39;s Wrath" style="rounded=1;strokeWidth=2;strokeColor=#667788;textShadow=0;labelBackgroundColor=none;whiteSpace=wrap;fontSize=15;fontFamily=Georgia;fillColor=none;fontColor=#000000;fontStyle=0" vertex="1" parent="DKlUDa0g7rmCu-vv5rfz-14">
          <mxGeometry x="820" y="460" width="160" height="40" as="geometry" />
        </mxCell>
        <mxCell id="ByqBd_FR368xJn7YFOeK-18" value="Blufmor Garaen" style="rounded=1;strokeWidth=2;strokeColor=#667788;textShadow=0;labelBackgroundColor=none;whiteSpace=wrap;fontSize=15;fontFamily=Georgia;fillColor=none;fontColor=#000000;fontStyle=1" vertex="1" parent="DKlUDa0g7rmCu-vv5rfz-14">
          <mxGeometry x="1220" y="300" width="160" height="40" as="geometry" />
        </mxCell>
        <mxCell id="ByqBd_FR368xJn7YFOeK-123" style="edgeStyle=orthogonalEdgeStyle;shape=connector;curved=0;rounded=1;orthogonalLoop=1;jettySize=auto;html=1;exitX=1;exitY=0.5;exitDx=0;exitDy=0;entryX=0;entryY=0.5;entryDx=0;entryDy=0;strokeColor=#667788;strokeWidth=2;align=center;verticalAlign=middle;fontFamily=Helvetica;fontSize=11;fontColor=default;labelBackgroundColor=default;endArrow=none;endFill=0;" edge="1" parent="DKlUDa0g7rmCu-vv5rfz-14" source="ByqBd_FR368xJn7YFOeK-19" target="ByqBd_FR368xJn7YFOeK-54">
          <mxGeometry relative="1" as="geometry" />
        </mxCell>
        <mxCell id="ByqBd_FR368xJn7YFOeK-19" value="Shockwave" style="rounded=1;strokeWidth=2;strokeColor=#667788;textShadow=0;labelBackgroundColor=none;whiteSpace=wrap;fontSize=15;fontFamily=Georgia;fillColor=none;fontColor=#000000;fontStyle=0" vertex="1" parent="DKlUDa0g7rmCu-vv5rfz-14">
          <mxGeometry x="1220" y="460" width="160" height="40" as="geometry" />
        </mxCell>
        <mxCell id="ByqBd_FR368xJn7YFOeK-20" value="Quick Infusions" style="rounded=1;strokeWidth=2;strokeColor=#667788;textShadow=0;labelBackgroundColor=none;whiteSpace=wrap;fontSize=15;fontFamily=Georgia;fillColor=none;fontColor=#000000;fontStyle=1" vertex="1" parent="DKlUDa0g7rmCu-vv5rfz-14">
          <mxGeometry x="1620" y="460" width="160" height="40" as="geometry" />
        </mxCell>
        <mxCell id="ByqBd_FR368xJn7YFOeK-81" style="edgeStyle=orthogonalEdgeStyle;shape=connector;curved=0;rounded=1;orthogonalLoop=1;jettySize=auto;html=1;exitX=1;exitY=0.5;exitDx=0;exitDy=0;entryX=0;entryY=0.5;entryDx=0;entryDy=0;dashed=1;strokeColor=#667788;strokeWidth=2;align=center;verticalAlign=middle;fontFamily=Helvetica;fontSize=11;fontColor=default;labelBackgroundColor=default;endArrow=classic;endFill=1;" edge="1" parent="DKlUDa0g7rmCu-vv5rfz-14" source="ByqBd_FR368xJn7YFOeK-21" target="ByqBd_FR368xJn7YFOeK-23">
          <mxGeometry relative="1" as="geometry">
            <Array as="points">
              <mxPoint x="400" y="640" />
              <mxPoint x="400" y="580" />
            </Array>
          </mxGeometry>
        </mxCell>
        <mxCell id="ByqBd_FR368xJn7YFOeK-82" style="edgeStyle=orthogonalEdgeStyle;shape=connector;curved=0;rounded=1;orthogonalLoop=1;jettySize=auto;html=1;exitX=1;exitY=0.5;exitDx=0;exitDy=0;entryX=0;entryY=0.5;entryDx=0;entryDy=0;dashed=1;strokeColor=#667788;strokeWidth=2;align=center;verticalAlign=middle;fontFamily=Helvetica;fontSize=11;fontColor=default;labelBackgroundColor=default;endArrow=classic;endFill=1;" edge="1" parent="DKlUDa0g7rmCu-vv5rfz-14" source="ByqBd_FR368xJn7YFOeK-21" target="ByqBd_FR368xJn7YFOeK-22">
          <mxGeometry relative="1" as="geometry" />
        </mxCell>
        <mxCell id="ByqBd_FR368xJn7YFOeK-83" style="edgeStyle=orthogonalEdgeStyle;shape=connector;curved=0;rounded=1;orthogonalLoop=1;jettySize=auto;html=1;exitX=1;exitY=0.5;exitDx=0;exitDy=0;entryX=0;entryY=0.5;entryDx=0;entryDy=0;dashed=1;strokeColor=#667788;strokeWidth=2;align=center;verticalAlign=middle;fontFamily=Helvetica;fontSize=11;fontColor=default;labelBackgroundColor=default;endArrow=classic;endFill=1;" edge="1" parent="DKlUDa0g7rmCu-vv5rfz-14" source="ByqBd_FR368xJn7YFOeK-21" target="ByqBd_FR368xJn7YFOeK-24">
          <mxGeometry relative="1" as="geometry" />
        </mxCell>
        <mxCell id="ByqBd_FR368xJn7YFOeK-101" style="edgeStyle=orthogonalEdgeStyle;shape=connector;curved=0;rounded=1;orthogonalLoop=1;jettySize=auto;html=1;exitX=1;exitY=0.5;exitDx=0;exitDy=0;dashed=1;strokeColor=#667788;strokeWidth=2;align=center;verticalAlign=middle;fontFamily=Helvetica;fontSize=11;fontColor=default;labelBackgroundColor=default;endArrow=none;endFill=0;" edge="1" parent="DKlUDa0g7rmCu-vv5rfz-14" source="ByqBd_FR368xJn7YFOeK-21">
          <mxGeometry relative="1" as="geometry">
            <mxPoint x="200" y="660.0000000000002" as="targetPoint" />
          </mxGeometry>
        </mxCell>
        <mxCell id="ByqBd_FR368xJn7YFOeK-21" value="Stone Strike" style="rounded=1;strokeWidth=2;strokeColor=#667788;textShadow=0;labelBackgroundColor=none;whiteSpace=wrap;fontSize=15;fontFamily=Georgia;fillColor=none;fontColor=#000000;" vertex="1" parent="DKlUDa0g7rmCu-vv5rfz-14">
          <mxGeometry x="20" y="620" width="160" height="40" as="geometry" />
        </mxCell>
        <mxCell id="ByqBd_FR368xJn7YFOeK-85" style="edgeStyle=orthogonalEdgeStyle;shape=connector;curved=0;rounded=1;orthogonalLoop=1;jettySize=auto;html=1;exitX=1;exitY=0.25;exitDx=0;exitDy=0;dashed=1;strokeColor=#667788;strokeWidth=2;align=center;verticalAlign=middle;fontFamily=Helvetica;fontSize=11;fontColor=default;labelBackgroundColor=default;endArrow=none;endFill=0;" edge="1" parent="DKlUDa0g7rmCu-vv5rfz-14" source="ByqBd_FR368xJn7YFOeK-22">
          <mxGeometry relative="1" as="geometry">
            <mxPoint x="710" y="640" as="targetPoint" />
            <Array as="points">
              <mxPoint x="700" y="690" />
              <mxPoint x="700" y="640" />
            </Array>
          </mxGeometry>
        </mxCell>
        <mxCell id="ByqBd_FR368xJn7YFOeK-86" style="edgeStyle=orthogonalEdgeStyle;shape=connector;curved=0;rounded=1;orthogonalLoop=1;jettySize=auto;html=1;exitX=1;exitY=0.5;exitDx=0;exitDy=0;entryX=0;entryY=0.5;entryDx=0;entryDy=0;strokeColor=#667788;strokeWidth=2;align=center;verticalAlign=middle;fontFamily=Helvetica;fontSize=11;fontColor=default;labelBackgroundColor=default;endArrow=none;endFill=0;" edge="1" parent="DKlUDa0g7rmCu-vv5rfz-14" source="ByqBd_FR368xJn7YFOeK-22" target="ByqBd_FR368xJn7YFOeK-25">
          <mxGeometry relative="1" as="geometry" />
        </mxCell>
        <mxCell id="ByqBd_FR368xJn7YFOeK-22" value="Anther&#39;s Call" style="rounded=1;strokeWidth=2;strokeColor=#667788;textShadow=0;labelBackgroundColor=none;whiteSpace=wrap;fontSize=15;fontFamily=Georgia;fillColor=none;fontColor=#000000;" vertex="1" parent="DKlUDa0g7rmCu-vv5rfz-14">
          <mxGeometry x="420" y="680" width="160" height="40" as="geometry" />
        </mxCell>
        <mxCell id="ByqBd_FR368xJn7YFOeK-23" value="Gam Irnan" style="rounded=1;strokeWidth=2;strokeColor=#667788;textShadow=0;labelBackgroundColor=none;whiteSpace=wrap;fontSize=15;fontFamily=Georgia;fillColor=none;fontColor=#000000;" vertex="1" parent="DKlUDa0g7rmCu-vv5rfz-14">
          <mxGeometry x="620" y="560" width="160" height="40" as="geometry" />
        </mxCell>
        <mxCell id="ByqBd_FR368xJn7YFOeK-84" style="edgeStyle=orthogonalEdgeStyle;shape=connector;curved=0;rounded=1;orthogonalLoop=1;jettySize=auto;html=1;exitX=1;exitY=0.5;exitDx=0;exitDy=0;entryX=0;entryY=0.5;entryDx=0;entryDy=0;dashed=1;strokeColor=#667788;strokeWidth=2;align=center;verticalAlign=middle;fontFamily=Helvetica;fontSize=11;fontColor=default;labelBackgroundColor=default;endArrow=classic;endFill=1;" edge="1" parent="DKlUDa0g7rmCu-vv5rfz-14" source="ByqBd_FR368xJn7YFOeK-24" target="ByqBd_FR368xJn7YFOeK-26">
          <mxGeometry relative="1" as="geometry" />
        </mxCell>
        <mxCell id="ByqBd_FR368xJn7YFOeK-24" value="Sure Footing" style="rounded=1;strokeWidth=2;strokeColor=#667788;textShadow=0;labelBackgroundColor=none;whiteSpace=wrap;fontSize=15;fontFamily=Georgia;fillColor=none;fontColor=#000000;fontStyle=0" vertex="1" parent="DKlUDa0g7rmCu-vv5rfz-14">
          <mxGeometry x="420" y="620" width="160" height="40" as="geometry" />
        </mxCell>
        <mxCell id="ByqBd_FR368xJn7YFOeK-88" style="edgeStyle=orthogonalEdgeStyle;shape=connector;curved=0;rounded=1;orthogonalLoop=1;jettySize=auto;html=1;exitX=1;exitY=0.25;exitDx=0;exitDy=0;dashed=1;strokeColor=#667788;strokeWidth=2;align=center;verticalAlign=middle;fontFamily=Helvetica;fontSize=11;fontColor=default;labelBackgroundColor=default;endArrow=none;endFill=0;" edge="1" parent="DKlUDa0g7rmCu-vv5rfz-14" source="ByqBd_FR368xJn7YFOeK-25">
          <mxGeometry relative="1" as="geometry">
            <mxPoint x="1110" y="640" as="targetPoint" />
            <Array as="points">
              <mxPoint x="1100" y="690" />
              <mxPoint x="1100" y="640" />
            </Array>
          </mxGeometry>
        </mxCell>
        <mxCell id="ByqBd_FR368xJn7YFOeK-89" style="edgeStyle=orthogonalEdgeStyle;shape=connector;curved=0;rounded=1;orthogonalLoop=1;jettySize=auto;html=1;exitX=1;exitY=0.5;exitDx=0;exitDy=0;entryX=0;entryY=0.5;entryDx=0;entryDy=0;strokeColor=#667788;strokeWidth=2;align=center;verticalAlign=middle;fontFamily=Helvetica;fontSize=11;fontColor=default;labelBackgroundColor=default;endArrow=none;endFill=0;" edge="1" parent="DKlUDa0g7rmCu-vv5rfz-14" source="ByqBd_FR368xJn7YFOeK-25" target="ByqBd_FR368xJn7YFOeK-27">
          <mxGeometry relative="1" as="geometry" />
        </mxCell>
        <mxCell id="ByqBd_FR368xJn7YFOeK-25" value="Magnetic Ballista" style="rounded=1;strokeWidth=2;strokeColor=#667788;textShadow=0;labelBackgroundColor=none;whiteSpace=wrap;fontSize=15;fontFamily=Georgia;fillColor=none;fontColor=#000000;fontStyle=1" vertex="1" parent="DKlUDa0g7rmCu-vv5rfz-14">
          <mxGeometry x="820" y="680" width="160" height="40" as="geometry" />
        </mxCell>
        <mxCell id="ByqBd_FR368xJn7YFOeK-87" style="edgeStyle=orthogonalEdgeStyle;shape=connector;curved=0;rounded=1;orthogonalLoop=1;jettySize=auto;html=1;exitX=1;exitY=0.5;exitDx=0;exitDy=0;entryX=0;entryY=0.5;entryDx=0;entryDy=0;dashed=1;strokeColor=#667788;strokeWidth=2;align=center;verticalAlign=middle;fontFamily=Helvetica;fontSize=11;fontColor=default;labelBackgroundColor=default;endArrow=classic;endFill=1;" edge="1" parent="DKlUDa0g7rmCu-vv5rfz-14" source="ByqBd_FR368xJn7YFOeK-26" target="ByqBd_FR368xJn7YFOeK-28">
          <mxGeometry relative="1" as="geometry" />
        </mxCell>
        <mxCell id="ByqBd_FR368xJn7YFOeK-26" value="Tremor" style="rounded=1;strokeWidth=2;strokeColor=#667788;textShadow=0;labelBackgroundColor=none;whiteSpace=wrap;fontSize=15;fontFamily=Georgia;fillColor=none;fontColor=#000000;fontStyle=0" vertex="1" parent="DKlUDa0g7rmCu-vv5rfz-14">
          <mxGeometry x="820" y="620" width="160" height="40" as="geometry" />
        </mxCell>
        <mxCell id="ByqBd_FR368xJn7YFOeK-27" value="Aegis of Granite" style="rounded=1;strokeWidth=2;strokeColor=#667788;textShadow=0;labelBackgroundColor=none;whiteSpace=wrap;fontSize=15;fontFamily=Georgia;fillColor=none;fontColor=#000000;fontStyle=1" vertex="1" parent="DKlUDa0g7rmCu-vv5rfz-14">
          <mxGeometry x="1420" y="680" width="160" height="40" as="geometry" />
        </mxCell>
        <mxCell id="ByqBd_FR368xJn7YFOeK-28" value="Ring of Spears" style="rounded=1;strokeWidth=2;strokeColor=#667788;textShadow=0;labelBackgroundColor=none;whiteSpace=wrap;fontSize=15;fontFamily=Georgia;fillColor=none;fontColor=#000000;fontStyle=1" vertex="1" parent="DKlUDa0g7rmCu-vv5rfz-14">
          <mxGeometry x="1220" y="620" width="160" height="40" as="geometry" />
        </mxCell>
        <mxCell id="ByqBd_FR368xJn7YFOeK-131" style="edgeStyle=orthogonalEdgeStyle;shape=connector;curved=0;rounded=1;orthogonalLoop=1;jettySize=auto;html=1;exitX=0;exitY=0.5;exitDx=0;exitDy=0;entryX=0;entryY=0.5;entryDx=0;entryDy=0;strokeColor=#667788;strokeWidth=2;align=center;verticalAlign=middle;fontFamily=Helvetica;fontSize=11;fontColor=default;labelBackgroundColor=default;endArrow=none;endFill=0;" edge="1" parent="DKlUDa0g7rmCu-vv5rfz-14" source="ByqBd_FR368xJn7YFOeK-29" target="ByqBd_FR368xJn7YFOeK-20">
          <mxGeometry relative="1" as="geometry" />
        </mxCell>
        <mxCell id="ByqBd_FR368xJn7YFOeK-29" value="Reinforced Infusions" style="rounded=1;strokeWidth=2;strokeColor=#667788;textShadow=0;labelBackgroundColor=none;whiteSpace=wrap;fontSize=15;fontFamily=Georgia;fillColor=none;fontColor=#000000;fontStyle=1" vertex="1" parent="DKlUDa0g7rmCu-vv5rfz-14">
          <mxGeometry x="1620" y="620" width="160" height="40" as="geometry" />
        </mxCell>
        <mxCell id="ByqBd_FR368xJn7YFOeK-90" style="edgeStyle=orthogonalEdgeStyle;shape=connector;curved=0;rounded=1;orthogonalLoop=1;jettySize=auto;html=1;exitX=1;exitY=0.5;exitDx=0;exitDy=0;entryX=0;entryY=0.75;entryDx=0;entryDy=0;dashed=1;strokeColor=#667788;strokeWidth=2;align=center;verticalAlign=middle;fontFamily=Helvetica;fontSize=11;fontColor=default;labelBackgroundColor=default;endArrow=classic;endFill=1;" edge="1" parent="DKlUDa0g7rmCu-vv5rfz-14" source="ByqBd_FR368xJn7YFOeK-30" target="ByqBd_FR368xJn7YFOeK-25">
          <mxGeometry relative="1" as="geometry">
            <Array as="points">
              <mxPoint x="400" y="840" />
              <mxPoint x="400" y="800" />
              <mxPoint x="700" y="800" />
              <mxPoint x="700" y="710" />
            </Array>
          </mxGeometry>
        </mxCell>
        <mxCell id="ByqBd_FR368xJn7YFOeK-91" style="edgeStyle=orthogonalEdgeStyle;shape=connector;curved=0;rounded=1;orthogonalLoop=1;jettySize=auto;html=1;exitX=1;exitY=0.5;exitDx=0;exitDy=0;entryX=0;entryY=0.5;entryDx=0;entryDy=0;dashed=1;strokeColor=#667788;strokeWidth=2;align=center;verticalAlign=middle;fontFamily=Helvetica;fontSize=11;fontColor=default;labelBackgroundColor=default;endArrow=classic;endFill=1;" edge="1" parent="DKlUDa0g7rmCu-vv5rfz-14" source="ByqBd_FR368xJn7YFOeK-30" target="ByqBd_FR368xJn7YFOeK-31">
          <mxGeometry relative="1" as="geometry" />
        </mxCell>
        <mxCell id="ByqBd_FR368xJn7YFOeK-92" style="edgeStyle=orthogonalEdgeStyle;shape=connector;curved=0;rounded=1;orthogonalLoop=1;jettySize=auto;html=1;exitX=1;exitY=0.5;exitDx=0;exitDy=0;entryX=0;entryY=0.5;entryDx=0;entryDy=0;dashed=1;strokeColor=#667788;strokeWidth=2;align=center;verticalAlign=middle;fontFamily=Helvetica;fontSize=11;fontColor=default;labelBackgroundColor=default;endArrow=classic;endFill=1;" edge="1" parent="DKlUDa0g7rmCu-vv5rfz-14" source="ByqBd_FR368xJn7YFOeK-30" target="ByqBd_FR368xJn7YFOeK-34">
          <mxGeometry relative="1" as="geometry">
            <Array as="points">
              <mxPoint x="400" y="840" />
              <mxPoint x="400" y="920" />
            </Array>
          </mxGeometry>
        </mxCell>
        <mxCell id="ByqBd_FR368xJn7YFOeK-94" style="edgeStyle=orthogonalEdgeStyle;shape=connector;curved=0;rounded=1;orthogonalLoop=1;jettySize=auto;html=1;exitX=1;exitY=0.5;exitDx=0;exitDy=0;entryX=0;entryY=0.5;entryDx=0;entryDy=0;dashed=1;strokeColor=#667788;strokeWidth=2;align=center;verticalAlign=middle;fontFamily=Helvetica;fontSize=11;fontColor=default;labelBackgroundColor=default;endArrow=classic;endFill=1;" edge="1" parent="DKlUDa0g7rmCu-vv5rfz-14" source="ByqBd_FR368xJn7YFOeK-30" target="ByqBd_FR368xJn7YFOeK-32">
          <mxGeometry relative="1" as="geometry">
            <Array as="points">
              <mxPoint x="400" y="840" />
              <mxPoint x="400" y="800" />
            </Array>
          </mxGeometry>
        </mxCell>
        <mxCell id="ByqBd_FR368xJn7YFOeK-102" style="edgeStyle=orthogonalEdgeStyle;shape=connector;curved=0;rounded=1;orthogonalLoop=1;jettySize=auto;html=1;exitX=1;exitY=0.5;exitDx=0;exitDy=0;dashed=1;strokeColor=#667788;strokeWidth=2;align=center;verticalAlign=middle;fontFamily=Helvetica;fontSize=11;fontColor=default;labelBackgroundColor=default;endArrow=none;endFill=0;" edge="1" parent="DKlUDa0g7rmCu-vv5rfz-14" source="ByqBd_FR368xJn7YFOeK-30">
          <mxGeometry relative="1" as="geometry">
            <mxPoint x="200" y="860" as="targetPoint" />
          </mxGeometry>
        </mxCell>
        <mxCell id="ByqBd_FR368xJn7YFOeK-30" value="Gar Zeng" style="rounded=1;strokeWidth=2;strokeColor=#667788;textShadow=0;labelBackgroundColor=none;whiteSpace=wrap;fontSize=15;fontFamily=Georgia;fillColor=none;fontColor=#000000;" vertex="1" parent="DKlUDa0g7rmCu-vv5rfz-14">
          <mxGeometry x="20" y="820" width="160" height="40" as="geometry" />
        </mxCell>
        <mxCell id="ByqBd_FR368xJn7YFOeK-93" style="edgeStyle=orthogonalEdgeStyle;shape=connector;curved=0;rounded=1;orthogonalLoop=1;jettySize=auto;html=1;exitX=1;exitY=0.5;exitDx=0;exitDy=0;entryX=0;entryY=0.5;entryDx=0;entryDy=0;strokeColor=#667788;strokeWidth=2;align=center;verticalAlign=middle;fontFamily=Helvetica;fontSize=11;fontColor=default;labelBackgroundColor=default;endArrow=none;endFill=0;" edge="1" parent="DKlUDa0g7rmCu-vv5rfz-14" source="ByqBd_FR368xJn7YFOeK-31" target="ByqBd_FR368xJn7YFOeK-35">
          <mxGeometry relative="1" as="geometry" />
        </mxCell>
        <mxCell id="ByqBd_FR368xJn7YFOeK-97" style="edgeStyle=orthogonalEdgeStyle;shape=connector;curved=0;rounded=1;orthogonalLoop=1;jettySize=auto;html=1;exitX=1;exitY=0.75;exitDx=0;exitDy=0;entryX=0;entryY=0.5;entryDx=0;entryDy=0;dashed=1;strokeColor=#667788;strokeWidth=2;align=center;verticalAlign=middle;fontFamily=Helvetica;fontSize=11;fontColor=default;labelBackgroundColor=default;endArrow=classic;endFill=1;" edge="1" parent="DKlUDa0g7rmCu-vv5rfz-14" source="ByqBd_FR368xJn7YFOeK-31" target="ByqBd_FR368xJn7YFOeK-33">
          <mxGeometry relative="1" as="geometry">
            <Array as="points">
              <mxPoint x="800" y="850" />
              <mxPoint x="800" y="880" />
              <mxPoint x="1000" y="880" />
              <mxPoint x="1000" y="920" />
            </Array>
          </mxGeometry>
        </mxCell>
        <mxCell id="ByqBd_FR368xJn7YFOeK-31" value="Arc Light" style="rounded=1;strokeWidth=2;strokeColor=#667788;textShadow=0;labelBackgroundColor=none;whiteSpace=wrap;fontSize=15;fontFamily=Georgia;fillColor=none;fontColor=#000000;fontStyle=0" vertex="1" parent="DKlUDa0g7rmCu-vv5rfz-14">
          <mxGeometry x="420" y="820" width="160" height="40" as="geometry" />
        </mxCell>
        <mxCell id="ByqBd_FR368xJn7YFOeK-32" value="Chain Lightning" style="rounded=1;strokeWidth=2;strokeColor=#667788;textShadow=0;labelBackgroundColor=none;whiteSpace=wrap;fontSize=15;fontFamily=Georgia;fillColor=none;fontColor=#000000;fontStyle=1" vertex="1" parent="DKlUDa0g7rmCu-vv5rfz-14">
          <mxGeometry x="1020" y="780" width="160" height="40" as="geometry" />
        </mxCell>
        <mxCell id="ByqBd_FR368xJn7YFOeK-95" style="edgeStyle=orthogonalEdgeStyle;shape=connector;curved=0;rounded=1;orthogonalLoop=1;jettySize=auto;html=1;exitX=1;exitY=0.5;exitDx=0;exitDy=0;entryX=0;entryY=0.5;entryDx=0;entryDy=0;dashed=1;strokeColor=#667788;strokeWidth=2;align=center;verticalAlign=middle;fontFamily=Helvetica;fontSize=11;fontColor=default;labelBackgroundColor=default;endArrow=classic;endFill=1;" edge="1" parent="DKlUDa0g7rmCu-vv5rfz-14" source="ByqBd_FR368xJn7YFOeK-33" target="ByqBd_FR368xJn7YFOeK-32">
          <mxGeometry relative="1" as="geometry" />
        </mxCell>
        <mxCell id="ByqBd_FR368xJn7YFOeK-98" style="edgeStyle=orthogonalEdgeStyle;shape=connector;curved=0;rounded=1;orthogonalLoop=1;jettySize=auto;html=1;exitX=1;exitY=0.5;exitDx=0;exitDy=0;entryX=0;entryY=0.5;entryDx=0;entryDy=0;strokeColor=#667788;strokeWidth=2;align=center;verticalAlign=middle;fontFamily=Helvetica;fontSize=11;fontColor=default;labelBackgroundColor=default;endArrow=none;endFill=0;" edge="1" parent="DKlUDa0g7rmCu-vv5rfz-14" source="ByqBd_FR368xJn7YFOeK-33" target="ByqBd_FR368xJn7YFOeK-37">
          <mxGeometry relative="1" as="geometry" />
        </mxCell>
        <mxCell id="ByqBd_FR368xJn7YFOeK-33" value="Lightning Bolt" style="rounded=1;strokeWidth=2;strokeColor=#667788;textShadow=0;labelBackgroundColor=none;whiteSpace=wrap;fontSize=15;fontFamily=Georgia;fillColor=none;fontColor=#000000;" vertex="1" parent="DKlUDa0g7rmCu-vv5rfz-14">
          <mxGeometry x="1020" y="900" width="160" height="40" as="geometry" />
        </mxCell>
        <mxCell id="ByqBd_FR368xJn7YFOeK-96" style="edgeStyle=orthogonalEdgeStyle;shape=connector;curved=0;rounded=1;orthogonalLoop=1;jettySize=auto;html=1;exitX=1;exitY=0.5;exitDx=0;exitDy=0;entryX=0;entryY=0.5;entryDx=0;entryDy=0;dashed=1;strokeColor=#667788;strokeWidth=2;align=center;verticalAlign=middle;fontFamily=Helvetica;fontSize=11;fontColor=default;labelBackgroundColor=default;endArrow=classic;endFill=1;" edge="1" parent="DKlUDa0g7rmCu-vv5rfz-14" source="ByqBd_FR368xJn7YFOeK-34" target="ByqBd_FR368xJn7YFOeK-33">
          <mxGeometry relative="1" as="geometry" />
        </mxCell>
        <mxCell id="ByqBd_FR368xJn7YFOeK-34" value="Tingle" style="rounded=1;strokeWidth=2;strokeColor=#667788;textShadow=0;labelBackgroundColor=none;whiteSpace=wrap;fontSize=15;fontFamily=Georgia;fillColor=none;fontColor=#000000;fontStyle=0" vertex="1" parent="DKlUDa0g7rmCu-vv5rfz-14">
          <mxGeometry x="820" y="900" width="160" height="40" as="geometry" />
        </mxCell>
        <mxCell id="ByqBd_FR368xJn7YFOeK-35" value="Electrostatic Eddy" style="rounded=1;strokeWidth=2;strokeColor=#667788;textShadow=0;labelBackgroundColor=none;whiteSpace=wrap;fontSize=15;fontFamily=Georgia;fillColor=none;fontColor=#000000;fontStyle=1" vertex="1" parent="DKlUDa0g7rmCu-vv5rfz-14">
          <mxGeometry x="820" y="820" width="160" height="40" as="geometry" />
        </mxCell>
        <mxCell id="ByqBd_FR368xJn7YFOeK-130" style="edgeStyle=orthogonalEdgeStyle;shape=connector;curved=0;rounded=1;orthogonalLoop=1;jettySize=auto;html=1;exitX=0;exitY=0.5;exitDx=0;exitDy=0;entryX=0;entryY=0.5;entryDx=0;entryDy=0;strokeColor=#667788;strokeWidth=2;align=center;verticalAlign=middle;fontFamily=Helvetica;fontSize=11;fontColor=default;labelBackgroundColor=default;endArrow=none;endFill=0;" edge="1" parent="DKlUDa0g7rmCu-vv5rfz-14" source="ByqBd_FR368xJn7YFOeK-36" target="ByqBd_FR368xJn7YFOeK-29">
          <mxGeometry relative="1" as="geometry" />
        </mxCell>
        <mxCell id="ByqBd_FR368xJn7YFOeK-36" value="Shocking Infusions" style="rounded=1;strokeWidth=2;strokeColor=#667788;textShadow=0;labelBackgroundColor=none;whiteSpace=wrap;fontSize=15;fontFamily=Georgia;fillColor=none;fontColor=#000000;fontStyle=1" vertex="1" parent="DKlUDa0g7rmCu-vv5rfz-14">
          <mxGeometry x="1620" y="900" width="160" height="40" as="geometry" />
        </mxCell>
        <mxCell id="ByqBd_FR368xJn7YFOeK-37" value="Grounding Field" style="rounded=1;strokeWidth=2;strokeColor=#667788;textShadow=0;labelBackgroundColor=none;whiteSpace=wrap;fontSize=15;fontFamily=Georgia;fillColor=none;fontColor=#000000;fontStyle=1" vertex="1" parent="DKlUDa0g7rmCu-vv5rfz-14">
          <mxGeometry x="1220" y="900" width="160" height="40" as="geometry" />
        </mxCell>
        <mxCell id="ByqBd_FR368xJn7YFOeK-110" style="edgeStyle=orthogonalEdgeStyle;shape=connector;curved=0;rounded=1;orthogonalLoop=1;jettySize=auto;html=1;exitX=1;exitY=0.5;exitDx=0;exitDy=0;entryX=0;entryY=0.5;entryDx=0;entryDy=0;dashed=1;strokeColor=#667788;strokeWidth=2;align=center;verticalAlign=middle;fontFamily=Helvetica;fontSize=11;fontColor=default;labelBackgroundColor=default;endArrow=classic;endFill=1;" edge="1" parent="DKlUDa0g7rmCu-vv5rfz-14" source="ByqBd_FR368xJn7YFOeK-38" target="ByqBd_FR368xJn7YFOeK-50">
          <mxGeometry relative="1" as="geometry" />
        </mxCell>
        <mxCell id="ByqBd_FR368xJn7YFOeK-113" style="edgeStyle=orthogonalEdgeStyle;shape=connector;curved=0;rounded=1;orthogonalLoop=1;jettySize=auto;html=1;exitX=1;exitY=0.5;exitDx=0;exitDy=0;entryX=0;entryY=0.5;entryDx=0;entryDy=0;dashed=1;strokeColor=#667788;strokeWidth=2;align=center;verticalAlign=middle;fontFamily=Helvetica;fontSize=11;fontColor=default;labelBackgroundColor=default;endArrow=classic;endFill=1;" edge="1" parent="DKlUDa0g7rmCu-vv5rfz-14" source="ByqBd_FR368xJn7YFOeK-38" target="ByqBd_FR368xJn7YFOeK-47">
          <mxGeometry relative="1" as="geometry" />
        </mxCell>
        <mxCell id="ByqBd_FR368xJn7YFOeK-114" style="edgeStyle=orthogonalEdgeStyle;shape=connector;curved=0;rounded=1;orthogonalLoop=1;jettySize=auto;html=1;exitX=1;exitY=0.5;exitDx=0;exitDy=0;entryX=0;entryY=0.5;entryDx=0;entryDy=0;dashed=1;strokeColor=#667788;strokeWidth=2;align=center;verticalAlign=middle;fontFamily=Helvetica;fontSize=11;fontColor=default;labelBackgroundColor=default;endArrow=classic;endFill=1;" edge="1" parent="DKlUDa0g7rmCu-vv5rfz-14" source="ByqBd_FR368xJn7YFOeK-38" target="ByqBd_FR368xJn7YFOeK-46">
          <mxGeometry relative="1" as="geometry" />
        </mxCell>
        <mxCell id="ByqBd_FR368xJn7YFOeK-115" style="edgeStyle=orthogonalEdgeStyle;shape=connector;curved=0;rounded=1;orthogonalLoop=1;jettySize=auto;html=1;exitX=1;exitY=0.5;exitDx=0;exitDy=0;entryX=0;entryY=0.5;entryDx=0;entryDy=0;dashed=1;strokeColor=#667788;strokeWidth=2;align=center;verticalAlign=middle;fontFamily=Helvetica;fontSize=11;fontColor=default;labelBackgroundColor=default;endArrow=classic;endFill=1;" edge="1" parent="DKlUDa0g7rmCu-vv5rfz-14" source="ByqBd_FR368xJn7YFOeK-38" target="ByqBd_FR368xJn7YFOeK-48">
          <mxGeometry relative="1" as="geometry">
            <Array as="points">
              <mxPoint x="300" y="1320" />
              <mxPoint x="300" y="1380" />
            </Array>
          </mxGeometry>
        </mxCell>
        <mxCell id="ByqBd_FR368xJn7YFOeK-38" value="Fire Shards " style="rounded=1;strokeWidth=2;strokeColor=#667788;textShadow=0;labelBackgroundColor=none;whiteSpace=wrap;fontSize=15;fontFamily=Georgia;fillColor=none;fontColor=#000000;" vertex="1" parent="DKlUDa0g7rmCu-vv5rfz-14">
          <mxGeometry x="20" y="1300" width="160" height="40" as="geometry" />
        </mxCell>
        <mxCell id="ByqBd_FR368xJn7YFOeK-107" style="edgeStyle=orthogonalEdgeStyle;shape=connector;curved=0;rounded=1;orthogonalLoop=1;jettySize=auto;html=1;exitX=1;exitY=0.5;exitDx=0;exitDy=0;entryX=0;entryY=0.5;entryDx=0;entryDy=0;dashed=1;strokeColor=#667788;strokeWidth=2;align=center;verticalAlign=middle;fontFamily=Helvetica;fontSize=11;fontColor=default;labelBackgroundColor=default;endArrow=classic;endFill=1;" edge="1" parent="DKlUDa0g7rmCu-vv5rfz-14" source="ByqBd_FR368xJn7YFOeK-39" target="ByqBd_FR368xJn7YFOeK-42">
          <mxGeometry relative="1" as="geometry" />
        </mxCell>
        <mxCell id="ByqBd_FR368xJn7YFOeK-116" style="edgeStyle=orthogonalEdgeStyle;shape=connector;curved=0;rounded=1;orthogonalLoop=1;jettySize=auto;html=1;exitX=1;exitY=0.75;exitDx=0;exitDy=0;entryX=0;entryY=0.5;entryDx=0;entryDy=0;strokeColor=#667788;strokeWidth=2;align=center;verticalAlign=middle;fontFamily=Helvetica;fontSize=11;fontColor=default;labelBackgroundColor=default;endArrow=none;endFill=0;" edge="1" parent="DKlUDa0g7rmCu-vv5rfz-14" source="ByqBd_FR368xJn7YFOeK-39" target="ByqBd_FR368xJn7YFOeK-47">
          <mxGeometry relative="1" as="geometry" />
        </mxCell>
        <mxCell id="ByqBd_FR368xJn7YFOeK-39" value="Substratum" style="rounded=1;strokeWidth=2;strokeColor=#667788;textShadow=0;labelBackgroundColor=none;whiteSpace=wrap;fontSize=15;fontFamily=Georgia;fillColor=none;fontColor=#000000;" vertex="1" parent="DKlUDa0g7rmCu-vv5rfz-14">
          <mxGeometry x="420" y="1000" width="160" height="40" as="geometry" />
        </mxCell>
        <mxCell id="ByqBd_FR368xJn7YFOeK-108" style="edgeStyle=orthogonalEdgeStyle;shape=connector;curved=0;rounded=1;orthogonalLoop=1;jettySize=auto;html=1;exitX=1;exitY=0.5;exitDx=0;exitDy=0;entryX=0;entryY=0.5;entryDx=0;entryDy=0;dashed=1;strokeColor=#667788;strokeWidth=2;align=center;verticalAlign=middle;fontFamily=Helvetica;fontSize=11;fontColor=default;labelBackgroundColor=default;endArrow=classic;endFill=1;" edge="1" parent="DKlUDa0g7rmCu-vv5rfz-14" source="ByqBd_FR368xJn7YFOeK-40" target="ByqBd_FR368xJn7YFOeK-42">
          <mxGeometry relative="1" as="geometry" />
        </mxCell>
        <mxCell id="ByqBd_FR368xJn7YFOeK-40" value="Ward Break" style="rounded=1;strokeWidth=2;strokeColor=#667788;textShadow=0;labelBackgroundColor=none;whiteSpace=wrap;fontSize=15;fontFamily=Georgia;fillColor=none;fontColor=#000000;fontStyle=0" vertex="1" parent="DKlUDa0g7rmCu-vv5rfz-14">
          <mxGeometry x="420" y="1060" width="160" height="40" as="geometry" />
        </mxCell>
        <mxCell id="ByqBd_FR368xJn7YFOeK-106" style="edgeStyle=orthogonalEdgeStyle;shape=connector;curved=0;rounded=1;orthogonalLoop=1;jettySize=auto;html=1;exitX=1;exitY=0.5;exitDx=0;exitDy=0;entryX=0;entryY=0.5;entryDx=0;entryDy=0;strokeColor=#667788;strokeWidth=2;align=center;verticalAlign=middle;fontFamily=Helvetica;fontSize=11;fontColor=default;labelBackgroundColor=default;endArrow=none;endFill=0;" edge="1" parent="DKlUDa0g7rmCu-vv5rfz-14" source="ByqBd_FR368xJn7YFOeK-42" target="ByqBd_FR368xJn7YFOeK-43">
          <mxGeometry relative="1" as="geometry" />
        </mxCell>
        <mxCell id="ByqBd_FR368xJn7YFOeK-42" value="Ethereal Fissure" style="rounded=1;strokeWidth=2;strokeColor=#667788;textShadow=0;labelBackgroundColor=none;whiteSpace=wrap;fontSize=15;fontFamily=Georgia;fillColor=none;fontColor=#000000;fontStyle=1" vertex="1" parent="DKlUDa0g7rmCu-vv5rfz-14">
          <mxGeometry x="820" y="1030" width="160" height="40" as="geometry" />
        </mxCell>
        <mxCell id="ByqBd_FR368xJn7YFOeK-132" style="edgeStyle=orthogonalEdgeStyle;shape=connector;curved=0;rounded=1;orthogonalLoop=1;jettySize=auto;html=1;exitX=1;exitY=0.5;exitDx=0;exitDy=0;entryX=0;entryY=0.5;entryDx=0;entryDy=0;strokeColor=#667788;strokeWidth=2;align=center;verticalAlign=middle;fontFamily=Helvetica;fontSize=11;fontColor=default;labelBackgroundColor=default;endArrow=none;endFill=0;" edge="1" parent="DKlUDa0g7rmCu-vv5rfz-14" source="ByqBd_FR368xJn7YFOeK-43" target="ByqBd_FR368xJn7YFOeK-52">
          <mxGeometry relative="1" as="geometry">
            <Array as="points">
              <mxPoint x="1390" y="1050" />
              <mxPoint x="1390" y="1160" />
              <mxPoint x="1200" y="1160" />
              <mxPoint x="1200" y="1270" />
            </Array>
          </mxGeometry>
        </mxCell>
        <mxCell id="ByqBd_FR368xJn7YFOeK-133" style="edgeStyle=orthogonalEdgeStyle;shape=connector;curved=0;rounded=1;orthogonalLoop=1;jettySize=auto;html=1;exitX=1;exitY=0.5;exitDx=0;exitDy=0;entryX=0;entryY=0.75;entryDx=0;entryDy=0;strokeColor=#667788;strokeWidth=2;align=center;verticalAlign=middle;fontFamily=Helvetica;fontSize=11;fontColor=default;labelBackgroundColor=default;endArrow=none;endFill=0;" edge="1" parent="DKlUDa0g7rmCu-vv5rfz-14" source="ByqBd_FR368xJn7YFOeK-43" target="ByqBd_FR368xJn7YFOeK-27">
          <mxGeometry relative="1" as="geometry">
            <Array as="points">
              <mxPoint x="1390" y="1050" />
              <mxPoint x="1390" y="710" />
            </Array>
          </mxGeometry>
        </mxCell>
        <mxCell id="ByqBd_FR368xJn7YFOeK-43" value="Aether Cloak" style="rounded=1;strokeWidth=2;strokeColor=#667788;textShadow=0;labelBackgroundColor=none;whiteSpace=wrap;fontSize=15;fontFamily=Georgia;fillColor=none;fontColor=#000000;fontStyle=1" vertex="1" parent="DKlUDa0g7rmCu-vv5rfz-14">
          <mxGeometry x="1220" y="1030" width="160" height="40" as="geometry" />
        </mxCell>
        <mxCell id="ByqBd_FR368xJn7YFOeK-109" style="edgeStyle=orthogonalEdgeStyle;shape=connector;curved=0;rounded=1;orthogonalLoop=1;jettySize=auto;html=1;exitX=1;exitY=0.5;exitDx=0;exitDy=0;entryX=0;entryY=0.5;entryDx=0;entryDy=0;strokeColor=#667788;strokeWidth=2;align=center;verticalAlign=middle;fontFamily=Helvetica;fontSize=11;fontColor=default;labelBackgroundColor=default;endArrow=none;endFill=0;" edge="1" parent="DKlUDa0g7rmCu-vv5rfz-14" source="ByqBd_FR368xJn7YFOeK-44" target="ByqBd_FR368xJn7YFOeK-40">
          <mxGeometry relative="1" as="geometry" />
        </mxCell>
        <mxCell id="ByqBd_FR368xJn7YFOeK-124" style="edgeStyle=orthogonalEdgeStyle;shape=connector;curved=0;rounded=1;orthogonalLoop=1;jettySize=auto;html=1;exitX=1;exitY=0.5;exitDx=0;exitDy=0;entryX=0;entryY=0.5;entryDx=0;entryDy=0;strokeColor=#667788;strokeWidth=2;align=center;verticalAlign=middle;fontFamily=Helvetica;fontSize=11;fontColor=default;labelBackgroundColor=default;endArrow=none;endFill=0;" edge="1" parent="DKlUDa0g7rmCu-vv5rfz-14" source="ByqBd_FR368xJn7YFOeK-44" target="ByqBd_FR368xJn7YFOeK-45">
          <mxGeometry relative="1" as="geometry">
            <Array as="points">
              <mxPoint x="1600" y="1140" />
              <mxPoint x="1600" y="1140" />
            </Array>
          </mxGeometry>
        </mxCell>
        <mxCell id="ByqBd_FR368xJn7YFOeK-44" value="Elementalism" style="rounded=1;strokeWidth=2;strokeColor=#667788;textShadow=0;labelBackgroundColor=none;whiteSpace=wrap;fontSize=15;fontFamily=Georgia;fillColor=none;fontColor=#000000;fontStyle=1" vertex="1" parent="DKlUDa0g7rmCu-vv5rfz-14">
          <mxGeometry x="220" y="1120" width="160" height="40" as="geometry" />
        </mxCell>
        <mxCell id="ByqBd_FR368xJn7YFOeK-128" style="edgeStyle=orthogonalEdgeStyle;shape=connector;curved=0;rounded=1;orthogonalLoop=1;jettySize=auto;html=1;exitX=0;exitY=0.5;exitDx=0;exitDy=0;entryX=0;entryY=0.5;entryDx=0;entryDy=0;strokeColor=#667788;strokeWidth=2;align=center;verticalAlign=middle;fontFamily=Helvetica;fontSize=11;fontColor=default;labelBackgroundColor=default;endArrow=none;endFill=0;" edge="1" parent="DKlUDa0g7rmCu-vv5rfz-14" source="ByqBd_FR368xJn7YFOeK-45" target="ByqBd_FR368xJn7YFOeK-36">
          <mxGeometry relative="1" as="geometry">
            <Array as="points">
              <mxPoint x="1600" y="1140" />
              <mxPoint x="1600" y="920" />
            </Array>
          </mxGeometry>
        </mxCell>
        <mxCell id="ByqBd_FR368xJn7YFOeK-45" value="Expansive Infusions" style="rounded=1;strokeWidth=2;strokeColor=#667788;textShadow=0;labelBackgroundColor=none;whiteSpace=wrap;fontSize=15;fontFamily=Georgia;fillColor=none;fontColor=#000000;fontStyle=1" vertex="1" parent="DKlUDa0g7rmCu-vv5rfz-14">
          <mxGeometry x="1620" y="1120" width="160" height="40" as="geometry" />
        </mxCell>
        <mxCell id="ByqBd_FR368xJn7YFOeK-112" style="edgeStyle=orthogonalEdgeStyle;shape=connector;curved=0;rounded=1;orthogonalLoop=1;jettySize=auto;html=1;exitX=1;exitY=0.5;exitDx=0;exitDy=0;entryX=0;entryY=0.5;entryDx=0;entryDy=0;strokeColor=#667788;strokeWidth=2;align=center;verticalAlign=middle;fontFamily=Helvetica;fontSize=11;fontColor=default;labelBackgroundColor=default;endArrow=none;endFill=0;" edge="1" parent="DKlUDa0g7rmCu-vv5rfz-14" source="ByqBd_FR368xJn7YFOeK-46" target="ByqBd_FR368xJn7YFOeK-55">
          <mxGeometry relative="1" as="geometry" />
        </mxCell>
        <mxCell id="ByqBd_FR368xJn7YFOeK-117" style="edgeStyle=orthogonalEdgeStyle;shape=connector;curved=0;rounded=1;orthogonalLoop=1;jettySize=auto;html=1;exitX=1;exitY=0.75;exitDx=0;exitDy=0;entryX=0;entryY=0.5;entryDx=0;entryDy=0;dashed=1;strokeColor=#667788;strokeWidth=2;align=center;verticalAlign=middle;fontFamily=Helvetica;fontSize=11;fontColor=default;labelBackgroundColor=default;endArrow=none;endFill=0;" edge="1" parent="DKlUDa0g7rmCu-vv5rfz-14" source="ByqBd_FR368xJn7YFOeK-46" target="ByqBd_FR368xJn7YFOeK-47">
          <mxGeometry relative="1" as="geometry">
            <Array as="points">
              <mxPoint x="590" y="1270" />
              <mxPoint x="590" y="1320" />
            </Array>
          </mxGeometry>
        </mxCell>
        <mxCell id="ByqBd_FR368xJn7YFOeK-120" style="edgeStyle=orthogonalEdgeStyle;shape=connector;curved=0;rounded=1;orthogonalLoop=1;jettySize=auto;html=1;exitX=1;exitY=0.75;exitDx=0;exitDy=0;entryX=0;entryY=0.5;entryDx=0;entryDy=0;dashed=1;strokeColor=#667788;strokeWidth=2;align=center;verticalAlign=middle;fontFamily=Helvetica;fontSize=11;fontColor=default;labelBackgroundColor=default;endArrow=classic;endFill=1;" edge="1" parent="DKlUDa0g7rmCu-vv5rfz-14" source="ByqBd_FR368xJn7YFOeK-46" target="ByqBd_FR368xJn7YFOeK-52">
          <mxGeometry relative="1" as="geometry" />
        </mxCell>
        <mxCell id="ByqBd_FR368xJn7YFOeK-46" value="Ignite" style="rounded=1;strokeWidth=2;strokeColor=#667788;textShadow=0;labelBackgroundColor=none;whiteSpace=wrap;fontSize=15;fontFamily=Georgia;fillColor=none;fontColor=#000000;" vertex="1" parent="DKlUDa0g7rmCu-vv5rfz-14">
          <mxGeometry x="420" y="1240" width="160" height="40" as="geometry" />
        </mxCell>
        <mxCell id="ByqBd_FR368xJn7YFOeK-47" value="Mark of Arhat" style="rounded=1;strokeWidth=2;strokeColor=#667788;textShadow=0;labelBackgroundColor=none;whiteSpace=wrap;fontSize=15;fontFamily=Georgia;fillColor=none;fontColor=#000000;fontStyle=1" vertex="1" parent="DKlUDa0g7rmCu-vv5rfz-14">
          <mxGeometry x="620" y="1300" width="160" height="40" as="geometry" />
        </mxCell>
        <mxCell id="ByqBd_FR368xJn7YFOeK-118" style="edgeStyle=orthogonalEdgeStyle;shape=connector;curved=0;rounded=1;orthogonalLoop=1;jettySize=auto;html=1;exitX=1;exitY=0.5;exitDx=0;exitDy=0;entryX=0;entryY=0.5;entryDx=0;entryDy=0;dashed=1;strokeColor=#667788;strokeWidth=2;align=center;verticalAlign=middle;fontFamily=Helvetica;fontSize=11;fontColor=default;labelBackgroundColor=default;endArrow=none;endFill=0;" edge="1" parent="DKlUDa0g7rmCu-vv5rfz-14" source="ByqBd_FR368xJn7YFOeK-48" target="ByqBd_FR368xJn7YFOeK-47">
          <mxGeometry relative="1" as="geometry">
            <Array as="points">
              <mxPoint x="1000" y="1380" />
              <mxPoint x="1000" y="1340" />
              <mxPoint x="800" y="1340" />
              <mxPoint x="800" y="1370" />
              <mxPoint x="590" y="1370" />
              <mxPoint x="590" y="1320" />
            </Array>
          </mxGeometry>
        </mxCell>
        <mxCell id="ByqBd_FR368xJn7YFOeK-119" style="edgeStyle=orthogonalEdgeStyle;shape=connector;curved=0;rounded=1;orthogonalLoop=1;jettySize=auto;html=1;exitX=1;exitY=0.5;exitDx=0;exitDy=0;entryX=0;entryY=0.5;entryDx=0;entryDy=0;dashed=1;strokeColor=#667788;strokeWidth=2;align=center;verticalAlign=middle;fontFamily=Helvetica;fontSize=11;fontColor=default;labelBackgroundColor=default;endArrow=classic;endFill=1;" edge="1" parent="DKlUDa0g7rmCu-vv5rfz-14" source="ByqBd_FR368xJn7YFOeK-48" target="ByqBd_FR368xJn7YFOeK-49">
          <mxGeometry relative="1" as="geometry" />
        </mxCell>
        <mxCell id="ByqBd_FR368xJn7YFOeK-48" value="Fire Ball" style="rounded=1;strokeWidth=2;strokeColor=#667788;textShadow=0;labelBackgroundColor=none;whiteSpace=wrap;fontSize=15;fontFamily=Georgia;fillColor=none;fontColor=#000000;" vertex="1" parent="DKlUDa0g7rmCu-vv5rfz-14">
          <mxGeometry x="820" y="1360" width="160" height="40" as="geometry" />
        </mxCell>
        <mxCell id="ByqBd_FR368xJn7YFOeK-122" style="edgeStyle=orthogonalEdgeStyle;shape=connector;curved=0;rounded=1;orthogonalLoop=1;jettySize=auto;html=1;exitX=1;exitY=0.5;exitDx=0;exitDy=0;entryX=0;entryY=0.5;entryDx=0;entryDy=0;dashed=1;strokeColor=#667788;strokeWidth=2;align=center;verticalAlign=middle;fontFamily=Helvetica;fontSize=11;fontColor=default;labelBackgroundColor=default;endArrow=classic;endFill=1;" edge="1" parent="DKlUDa0g7rmCu-vv5rfz-14" source="ByqBd_FR368xJn7YFOeK-49" target="ByqBd_FR368xJn7YFOeK-51">
          <mxGeometry relative="1" as="geometry">
            <Array as="points">
              <mxPoint x="1400" y="1380" />
              <mxPoint x="1400" y="1330" />
            </Array>
          </mxGeometry>
        </mxCell>
        <mxCell id="ByqBd_FR368xJn7YFOeK-49" value="Dragon&#39;s Breath" style="rounded=1;strokeWidth=2;strokeColor=#667788;textShadow=0;labelBackgroundColor=none;whiteSpace=wrap;fontSize=15;fontFamily=Georgia;fillColor=none;fontColor=#000000;fontStyle=1" vertex="1" parent="DKlUDa0g7rmCu-vv5rfz-14">
          <mxGeometry x="1020" y="1360" width="160" height="40" as="geometry" />
        </mxCell>
        <mxCell id="ByqBd_FR368xJn7YFOeK-103" style="edgeStyle=orthogonalEdgeStyle;shape=connector;curved=0;rounded=1;orthogonalLoop=1;jettySize=auto;html=1;exitX=1;exitY=0.5;exitDx=0;exitDy=0;entryX=0;entryY=0.5;entryDx=0;entryDy=0;dashed=1;strokeColor=#667788;strokeWidth=2;align=center;verticalAlign=middle;fontFamily=Helvetica;fontSize=11;fontColor=default;labelBackgroundColor=default;endArrow=classic;endFill=1;" edge="1" parent="DKlUDa0g7rmCu-vv5rfz-14" source="ByqBd_FR368xJn7YFOeK-50" target="ByqBd_FR368xJn7YFOeK-39">
          <mxGeometry relative="1" as="geometry" />
        </mxCell>
        <mxCell id="ByqBd_FR368xJn7YFOeK-105" style="edgeStyle=orthogonalEdgeStyle;shape=connector;curved=0;rounded=1;orthogonalLoop=1;jettySize=auto;html=1;exitX=1;exitY=0.5;exitDx=0;exitDy=0;entryX=0;entryY=0.5;entryDx=0;entryDy=0;strokeColor=#667788;strokeWidth=2;align=center;verticalAlign=middle;fontFamily=Helvetica;fontSize=11;fontColor=default;labelBackgroundColor=default;endArrow=none;endFill=0;" edge="1" parent="DKlUDa0g7rmCu-vv5rfz-14" source="ByqBd_FR368xJn7YFOeK-50" target="ByqBd_FR368xJn7YFOeK-40">
          <mxGeometry relative="1" as="geometry" />
        </mxCell>
        <mxCell id="ByqBd_FR368xJn7YFOeK-127" style="edgeStyle=orthogonalEdgeStyle;shape=connector;curved=0;rounded=1;orthogonalLoop=1;jettySize=auto;html=1;exitX=1;exitY=0.5;exitDx=0;exitDy=0;entryX=0;entryY=0.5;entryDx=0;entryDy=0;strokeColor=#667788;strokeWidth=2;align=center;verticalAlign=middle;fontFamily=Helvetica;fontSize=11;fontColor=default;labelBackgroundColor=default;endArrow=none;endFill=0;" edge="1" parent="DKlUDa0g7rmCu-vv5rfz-14" source="ByqBd_FR368xJn7YFOeK-50" target="ByqBd_FR368xJn7YFOeK-44">
          <mxGeometry relative="1" as="geometry">
            <Array as="points">
              <mxPoint x="400" y="1050" />
              <mxPoint x="400" y="1095" />
              <mxPoint x="210" y="1095" />
              <mxPoint x="210" y="1140" />
            </Array>
          </mxGeometry>
        </mxCell>
        <mxCell id="ByqBd_FR368xJn7YFOeK-50" value="Ethereal Shield" style="rounded=1;strokeWidth=2;strokeColor=#667788;textShadow=0;labelBackgroundColor=none;whiteSpace=wrap;fontSize=15;fontFamily=Georgia;fillColor=none;fontColor=#000000;" vertex="1" parent="DKlUDa0g7rmCu-vv5rfz-14">
          <mxGeometry x="220" y="1030" width="160" height="40" as="geometry" />
        </mxCell>
        <mxCell id="ByqBd_FR368xJn7YFOeK-51" value="Fire Rain" style="rounded=1;strokeWidth=2;strokeColor=#667788;textShadow=0;labelBackgroundColor=none;whiteSpace=wrap;fontSize=15;fontFamily=Georgia;fillColor=none;fontColor=#000000;fontStyle=1" vertex="1" parent="DKlUDa0g7rmCu-vv5rfz-14">
          <mxGeometry x="1420" y="1310" width="160" height="40" as="geometry" />
        </mxCell>
        <mxCell id="ByqBd_FR368xJn7YFOeK-121" style="edgeStyle=orthogonalEdgeStyle;shape=connector;curved=0;rounded=1;orthogonalLoop=1;jettySize=auto;html=1;exitX=1;exitY=0.5;exitDx=0;exitDy=0;entryX=0;entryY=0.5;entryDx=0;entryDy=0;dashed=1;strokeColor=#667788;strokeWidth=2;align=center;verticalAlign=middle;fontFamily=Helvetica;fontSize=11;fontColor=default;labelBackgroundColor=default;endArrow=classic;endFill=1;" edge="1" parent="DKlUDa0g7rmCu-vv5rfz-14" source="ByqBd_FR368xJn7YFOeK-52" target="ByqBd_FR368xJn7YFOeK-51">
          <mxGeometry relative="1" as="geometry" />
        </mxCell>
        <mxCell id="ByqBd_FR368xJn7YFOeK-52" value="Mantle of Flame" style="rounded=1;strokeWidth=2;strokeColor=#667788;textShadow=0;labelBackgroundColor=none;whiteSpace=wrap;fontSize=15;fontFamily=Georgia;fillColor=none;fontColor=#000000;fontStyle=1" vertex="1" parent="DKlUDa0g7rmCu-vv5rfz-14">
          <mxGeometry x="1220" y="1250" width="160" height="40" as="geometry" />
        </mxCell>
        <mxCell id="ByqBd_FR368xJn7YFOeK-129" style="edgeStyle=orthogonalEdgeStyle;shape=connector;curved=0;rounded=1;orthogonalLoop=1;jettySize=auto;html=1;exitX=0;exitY=0.5;exitDx=0;exitDy=0;entryX=0;entryY=0.5;entryDx=0;entryDy=0;strokeColor=#667788;strokeWidth=2;align=center;verticalAlign=middle;fontFamily=Helvetica;fontSize=11;fontColor=default;labelBackgroundColor=default;endArrow=none;endFill=0;" edge="1" parent="DKlUDa0g7rmCu-vv5rfz-14" source="ByqBd_FR368xJn7YFOeK-53" target="ByqBd_FR368xJn7YFOeK-45">
          <mxGeometry relative="1" as="geometry" />
        </mxCell>
        <mxCell id="ByqBd_FR368xJn7YFOeK-53" value="Fiery Infusions" style="rounded=1;strokeWidth=2;strokeColor=#667788;textShadow=0;labelBackgroundColor=none;whiteSpace=wrap;fontSize=15;fontFamily=Georgia;fillColor=none;fontColor=#000000;fontStyle=1" vertex="1" parent="DKlUDa0g7rmCu-vv5rfz-14">
          <mxGeometry x="1620" y="1250" width="160" height="40" as="geometry" />
        </mxCell>
        <mxCell id="ByqBd_FR368xJn7YFOeK-54" value="Flame Shockwave" style="rounded=1;strokeWidth=2;strokeColor=#667788;textShadow=0;labelBackgroundColor=none;whiteSpace=wrap;fontSize=15;fontFamily=Georgia;fillColor=none;fontColor=#000000;" vertex="1" parent="DKlUDa0g7rmCu-vv5rfz-14">
          <mxGeometry x="1420" y="1250" width="160" height="40" as="geometry" />
        </mxCell>
        <mxCell id="ByqBd_FR368xJn7YFOeK-55" value="Ignition Point" style="rounded=1;strokeWidth=2;strokeColor=#667788;textShadow=0;labelBackgroundColor=none;whiteSpace=wrap;fontSize=15;fontFamily=Georgia;fillColor=none;fontColor=#000000;" vertex="1" parent="DKlUDa0g7rmCu-vv5rfz-14">
          <mxGeometry x="1020" y="1180" width="160" height="40" as="geometry" />
        </mxCell>
        <mxCell id="ByqBd_FR368xJn7YFOeK-56" value="Aethrolysis" style="rounded=1;strokeWidth=2;strokeColor=#667788;textShadow=0;labelBackgroundColor=none;whiteSpace=wrap;fontSize=15;fontFamily=Georgia;fillColor=none;fontColor=#000000;fontStyle=1" vertex="1" parent="DKlUDa0g7rmCu-vv5rfz-14">
          <mxGeometry x="420" y="1460" width="160" height="40" as="geometry" />
        </mxCell>
        <mxCell id="1" style="" parent="0" />
        <mxCell id="-dR2T00Uhgw3VuPTZwKf-42" value="" style="html=1;rounded=0;strokeWidth=2;endArrow=none;endFill=0;dashed=1;labelBackgroundColor=none;shadow=1;movable=1;resizable=1;rotatable=1;deletable=1;editable=1;locked=0;connectable=1;fontColor=default;strokeColor=#667788;opacity=70;dashPattern=1 1;" parent="1" edge="1">
          <mxGeometry width="100" relative="1" as="geometry">
            <mxPoint x="400" y="10" as="sourcePoint" />
            <mxPoint x="400" y="1510" as="targetPoint" />
          </mxGeometry>
        </mxCell>
        <mxCell id="-dR2T00Uhgw3VuPTZwKf-54" value="" style="html=1;rounded=0;strokeWidth=2;endArrow=none;endFill=0;dashed=1;exitX=0.633;exitY=0;exitDx=0;exitDy=0;exitPerimeter=0;labelBackgroundColor=none;shadow=1;movable=1;resizable=1;rotatable=1;deletable=1;editable=1;locked=0;connectable=1;fontColor=default;strokeColor=#667788;opacity=70;dashPattern=1 1;" parent="1" edge="1">
          <mxGeometry width="100" relative="1" as="geometry">
            <mxPoint x="1200" y="10" as="sourcePoint" />
            <mxPoint x="1200" y="1510" as="targetPoint" />
          </mxGeometry>
        </mxCell>
        <mxCell id="-dR2T00Uhgw3VuPTZwKf-70" value="" style="html=1;rounded=0;strokeWidth=2;endArrow=none;endFill=0;dashed=1;labelBackgroundColor=none;shadow=1;movable=1;resizable=1;rotatable=1;deletable=1;editable=1;locked=0;connectable=1;fontColor=default;strokeColor=#667788;opacity=70;dashPattern=1 1;" parent="1" edge="1">
          <mxGeometry width="100" relative="1" as="geometry">
            <mxPoint x="10" y="40" as="sourcePoint" />
            <mxPoint x="1780" y="40" as="targetPoint" />
          </mxGeometry>
        </mxCell>
        <mxCell id="DKlUDa0g7rmCu-vv5rfz-8" value="" style="html=1;rounded=0;strokeWidth=2;endArrow=none;endFill=0;dashed=1;labelBackgroundColor=none;shadow=1;movable=1;resizable=1;rotatable=1;deletable=1;editable=1;locked=0;connectable=1;fontColor=default;strokeColor=#667788;opacity=70;dashPattern=1 1;" parent="1" edge="1">
          <mxGeometry width="100" relative="1" as="geometry">
            <mxPoint x="800" y="10" as="sourcePoint" />
            <mxPoint x="800" y="1510" as="targetPoint" />
          </mxGeometry>
        </mxCell>
        <mxCell id="DKlUDa0g7rmCu-vv5rfz-415" value="Basic" style="text;align=center;verticalAlign=middle;resizable=0;points=[];autosize=0;strokeColor=none;fillColor=none;fontFamily=Helvetica;fontSize=18;fontColor=#667788;labelBackgroundColor=none;textShadow=1;" parent="1" vertex="1">
          <mxGeometry x="560" width="80" height="40" as="geometry" />
        </mxCell>
        <mxCell id="DKlUDa0g7rmCu-vv5rfz-416" value="Intermediate" style="text;align=center;verticalAlign=middle;resizable=0;points=[];autosize=0;strokeColor=none;fillColor=none;fontFamily=Helvetica;fontSize=18;fontColor=#667788;labelBackgroundColor=none;textShadow=1;" parent="1" vertex="1">
          <mxGeometry x="940" width="120" height="40" as="geometry" />
        </mxCell>
        <mxCell id="DKlUDa0g7rmCu-vv5rfz-417" value="Intro" style="text;html=1;align=center;verticalAlign=middle;resizable=0;points=[];autosize=0;strokeColor=none;fillColor=none;fontFamily=Helvetica;fontSize=18;fontColor=#667788;labelBackgroundColor=none;textShadow=1;" parent="1" vertex="1">
          <mxGeometry x="160" width="80" height="40" as="geometry" />
        </mxCell>
        <mxCell id="DKlUDa0g7rmCu-vv5rfz-418" value="Advanced" style="text;align=center;verticalAlign=middle;resizable=0;points=[];autosize=0;strokeColor=none;fillColor=none;fontFamily=Helvetica;fontSize=18;fontColor=#667788;labelBackgroundColor=none;textShadow=1;" parent="1" vertex="1">
          <mxGeometry x="1340" width="120" height="40" as="geometry" />
        </mxCell>
        <mxCell id="-dR2T00Uhgw3VuPTZwKf-47" value="Legend" style="rounded=1;fillColor=none;verticalAlign=top;labelBackgroundColor=none;movable=1;resizable=1;rotatable=1;deletable=1;editable=1;locked=0;connectable=1;container=0;fontStyle=1;fontColor=#667788;fontFamily=Georgia;strokeColor=#667788;shadow=1;glass=0;strokeWidth=1;textShadow=0;whiteSpace=wrap;" parent="1" vertex="1">
          <mxGeometry x="1820" y="480" width="200" height="490" as="geometry" />
        </mxCell>
        <mxCell id="-dR2T00Uhgw3VuPTZwKf-555" value="Metamagic" style="rounded=1;whiteSpace=wrap;fillColor=#D5D0CA;labelBackgroundColor=none;movable=1;resizable=1;rotatable=1;deletable=1;editable=1;locked=0;connectable=1;container=0;fontFamily=Georgia;fontSize=18;strokeColor=#667788;shadow=0;glass=0;strokeWidth=1;align=center;fontStyle=1;verticalAlign=middle;fontColor=#000000;textShadow=0;" parent="1" vertex="1">
          <mxGeometry x="1840" y="810" width="160" height="40" as="geometry" />
        </mxCell>
        <mxCell id="DKlUDa0g7rmCu-vv5rfz-169" value="Debilitation" style="rounded=1;whiteSpace=wrap;fillColor=#EBCD00;labelBackgroundColor=none;movable=1;resizable=1;rotatable=1;deletable=1;editable=1;locked=0;connectable=1;container=0;fontFamily=Georgia;fontSize=18;strokeColor=#667788;shadow=1;glass=0;strokeWidth=1;align=center;fontStyle=1;verticalAlign=middle;fontColor=#000000;textShadow=0;" parent="1" vertex="1">
          <mxGeometry x="1840" y="760" width="160" height="40" as="geometry" />
        </mxCell>
        <mxCell id="DKlUDa0g7rmCu-vv5rfz-170" value="Targeted Magic" style="rounded=1;whiteSpace=wrap;fillColor=#E80538;labelBackgroundColor=none;movable=1;resizable=1;rotatable=1;deletable=1;editable=1;locked=0;connectable=1;container=0;fontFamily=Georgia;fontSize=18;strokeColor=#667788;shadow=1;glass=0;strokeWidth=1;align=center;fontStyle=1;verticalAlign=middle;fontColor=#FFFFFF;textShadow=0;" parent="1" vertex="1">
          <mxGeometry x="1840" y="710" width="160" height="40" as="geometry" />
        </mxCell>
        <mxCell id="DKlUDa0g7rmCu-vv5rfz-171" value="Utility" style="rounded=1;whiteSpace=wrap;fillColor=#B3D56A;labelBackgroundColor=none;movable=1;resizable=1;rotatable=1;deletable=1;editable=1;locked=0;connectable=1;container=0;fontFamily=Georgia;fontSize=18;strokeColor=#667788;shadow=1;glass=0;strokeWidth=1;align=center;fontStyle=1;verticalAlign=middle;fontColor=#000000;textShadow=0;" parent="1" vertex="1">
          <mxGeometry x="1840" y="660" width="160" height="40" as="geometry" />
        </mxCell>
        <mxCell id="DKlUDa0g7rmCu-vv5rfz-172" value="Warding" style="rounded=1;whiteSpace=wrap;fillColor=#147A6D;labelBackgroundColor=none;movable=1;resizable=1;rotatable=1;deletable=1;editable=1;locked=0;connectable=1;container=0;fontFamily=Georgia;fontSize=18;strokeColor=#667788;shadow=1;glass=0;strokeWidth=1;align=center;fontStyle=1;verticalAlign=middle;fontColor=#FFFFFF;textShadow=0;" parent="1" vertex="1">
          <mxGeometry x="1840" y="610" width="160" height="40" as="geometry" />
        </mxCell>
        <mxCell id="DKlUDa0g7rmCu-vv5rfz-174" value="Augmentation" style="rounded=1;whiteSpace=wrap;fillColor=#AAC8EB;labelBackgroundColor=none;movable=1;resizable=1;rotatable=1;deletable=1;editable=1;locked=0;connectable=1;container=0;fontFamily=Georgia;fontSize=18;strokeColor=#667788;shadow=1;glass=0;strokeWidth=1;fontColor=#000000;align=center;fontStyle=1;verticalAlign=middle;textShadow=0;" parent="1" vertex="1">
          <mxGeometry x="1840" y="560" width="160" height="40" as="geometry" />
        </mxCell>
        <mxCell id="DKlUDa0g7rmCu-vv5rfz-178" value="Special requirements in italics" style="text;align=center;verticalAlign=middle;whiteSpace=wrap;rounded=1;fontFamily=Georgia;fontSize=15;fontColor=#667788;labelBackgroundColor=none;fontStyle=3;strokeColor=none;shadow=1;glass=0;strokeWidth=1;movable=1;resizable=1;rotatable=1;deletable=1;editable=1;locked=0;connectable=1;" parent="1" vertex="1">
          <mxGeometry x="1840" y="510" width="160" height="40" as="geometry" />
        </mxCell>
        <mxCell id="DKlUDa0g7rmCu-vv5rfz-186" value="Signature spells in bold" style="text;align=center;verticalAlign=middle;whiteSpace=wrap;rounded=1;fontFamily=Georgia;fontSize=15;fontColor=#667788;labelBackgroundColor=none;fontStyle=1;strokeColor=none;shadow=1;glass=0;strokeWidth=1;movable=1;resizable=1;rotatable=1;deletable=1;editable=1;locked=0;connectable=1;" parent="1" vertex="1">
          <mxGeometry x="1840" y="860" width="160" height="40" as="geometry" />
        </mxCell>
        <mxCell id="DKlUDa0g7rmCu-vv5rfz-187" value="●○○○&#xa;Spell slot cost" style="text;align=center;verticalAlign=middle;whiteSpace=wrap;rounded=1;fontFamily=Georgia;fontSize=15;fontColor=#667788;labelBackgroundColor=none;strokeColor=none;shadow=1;glass=0;strokeWidth=1;movable=1;resizable=1;rotatable=1;deletable=1;editable=1;locked=0;connectable=1;fontStyle=1" parent="1" vertex="1">
          <mxGeometry x="1840" y="900" width="160" height="40" as="geometry" />
        </mxCell>
        <mxCell id="DKlUDa0g7rmCu-vv5rfz-188" value="Spell cost bubbles text" style="locked=1;" parent="0" visible="0" />
        <mxCell id="CoPnodNDMeY2YXLun1O6-93" value="●○○" style="text;align=center;verticalAlign=middle;rounded=0;fontFamily=Helvetica;fontSize=13;fontColor=default;labelBackgroundColor=none;spacing=0;spacingTop=0;spacingBottom=-5;fillColor=none;" parent="DKlUDa0g7rmCu-vv5rfz-188" vertex="1">
          <mxGeometry x="140" y="640" width="40" height="20" as="geometry" />
        </mxCell>
        <mxCell id="bMIZUlVMKYhtr8G9Qs2D-67" value="●○○" style="text;align=center;verticalAlign=middle;rounded=0;fontFamily=Helvetica;fontSize=13;fontColor=#FFFFFF;labelBackgroundColor=none;spacing=0;spacingTop=0;spacingBottom=-5;fillColor=none;" parent="DKlUDa0g7rmCu-vv5rfz-188" vertex="1">
          <mxGeometry x="140" y="110" width="40" height="20" as="geometry" />
        </mxCell>
        <mxCell id="bMIZUlVMKYhtr8G9Qs2D-68" value="●○○" style="text;align=center;verticalAlign=middle;rounded=0;fontFamily=Helvetica;fontSize=13;fontColor=default;labelBackgroundColor=none;spacing=0;spacingTop=0;spacingBottom=-5;fillColor=none;" parent="DKlUDa0g7rmCu-vv5rfz-188" vertex="1">
          <mxGeometry x="1140" y="80" width="40" height="20" as="geometry" />
        </mxCell>
        <mxCell id="bMIZUlVMKYhtr8G9Qs2D-69" value="●○○" style="text;align=center;verticalAlign=middle;rounded=0;fontFamily=Helvetica;fontSize=13;fontColor=default;labelBackgroundColor=none;spacing=0;spacingTop=0;spacingBottom=-5;fillColor=none;" parent="DKlUDa0g7rmCu-vv5rfz-188" vertex="1">
          <mxGeometry x="540" y="260" width="40" height="20" as="geometry" />
        </mxCell>
        <mxCell id="bMIZUlVMKYhtr8G9Qs2D-70" value="●○○" style="text;align=center;verticalAlign=middle;rounded=0;fontFamily=Helvetica;fontSize=13;fontColor=#FFFFFF;labelBackgroundColor=none;spacing=0;spacingTop=0;spacingBottom=-5;fillColor=none;" parent="DKlUDa0g7rmCu-vv5rfz-188" vertex="1">
          <mxGeometry x="340" y="300" width="40" height="20" as="geometry" />
        </mxCell>
        <mxCell id="bMIZUlVMKYhtr8G9Qs2D-71" value="●○○" style="text;align=center;verticalAlign=middle;rounded=0;fontFamily=Helvetica;fontSize=13;fontColor=default;labelBackgroundColor=none;spacing=0;spacingTop=0;spacingBottom=-5;fillColor=none;" parent="DKlUDa0g7rmCu-vv5rfz-188" vertex="1">
          <mxGeometry x="340" y="420" width="40" height="20" as="geometry" />
        </mxCell>
        <mxCell id="bMIZUlVMKYhtr8G9Qs2D-72" value="●○○" style="text;align=center;verticalAlign=middle;rounded=0;fontFamily=Helvetica;fontSize=13;fontColor=#FFFFFF;labelBackgroundColor=none;spacing=0;spacingTop=0;spacingBottom=-5;fillColor=none;" parent="DKlUDa0g7rmCu-vv5rfz-188" vertex="1">
          <mxGeometry x="940" y="240" width="40" height="20" as="geometry" />
        </mxCell>
        <mxCell id="bMIZUlVMKYhtr8G9Qs2D-73" value="●○○" style="text;align=center;verticalAlign=middle;rounded=0;fontFamily=Helvetica;fontSize=13;fontColor=#FFFFFF;labelBackgroundColor=none;spacing=0;spacingTop=0;spacingBottom=-5;fillColor=none;" parent="DKlUDa0g7rmCu-vv5rfz-188" vertex="1">
          <mxGeometry x="1140" y="620" width="40" height="20" as="geometry" />
        </mxCell>
        <mxCell id="bMIZUlVMKYhtr8G9Qs2D-74" value="●○○" style="text;align=center;verticalAlign=middle;rounded=0;fontFamily=Helvetica;fontSize=13;fontColor=default;labelBackgroundColor=none;spacing=0;spacingTop=0;spacingBottom=-5;fillColor=none;" parent="DKlUDa0g7rmCu-vv5rfz-188" vertex="1">
          <mxGeometry x="340" y="580" width="40" height="20" as="geometry" />
        </mxCell>
        <mxCell id="bMIZUlVMKYhtr8G9Qs2D-75" value="●○○" style="text;align=center;verticalAlign=middle;rounded=0;fontFamily=Helvetica;fontSize=13;fontColor=#FFFFFF;labelBackgroundColor=none;spacing=0;spacingTop=0;spacingBottom=-5;fillColor=none;" parent="DKlUDa0g7rmCu-vv5rfz-188" vertex="1">
          <mxGeometry x="540" y="610" width="40" height="20" as="geometry" />
        </mxCell>
        <mxCell id="bMIZUlVMKYhtr8G9Qs2D-76" value="●○○" style="text;align=center;verticalAlign=middle;rounded=0;fontFamily=Helvetica;fontSize=13;fontColor=default;labelBackgroundColor=none;spacing=0;spacingTop=0;spacingBottom=-5;fillColor=none;" parent="DKlUDa0g7rmCu-vv5rfz-188" vertex="1">
          <mxGeometry x="740" y="580" width="40" height="20" as="geometry" />
        </mxCell>
        <mxCell id="bMIZUlVMKYhtr8G9Qs2D-77" value="●●○" style="text;align=center;verticalAlign=middle;rounded=0;fontFamily=Helvetica;fontSize=13;fontColor=default;labelBackgroundColor=none;spacing=0;spacingTop=0;spacingBottom=-5;fillColor=none;" parent="DKlUDa0g7rmCu-vv5rfz-188" vertex="1">
          <mxGeometry x="340" y="80" width="40" height="20" as="geometry" />
        </mxCell>
        <mxCell id="bMIZUlVMKYhtr8G9Qs2D-78" value="●●○" style="text;align=center;verticalAlign=middle;rounded=0;fontFamily=Helvetica;fontSize=13;fontColor=#FFFFFF;labelBackgroundColor=none;spacing=0;spacingTop=0;spacingBottom=-5;fillColor=none;" parent="DKlUDa0g7rmCu-vv5rfz-188" vertex="1">
          <mxGeometry x="540" y="110" width="40" height="20" as="geometry" />
        </mxCell>
        <mxCell id="bMIZUlVMKYhtr8G9Qs2D-79" value="●●○" style="text;align=center;verticalAlign=middle;rounded=0;fontFamily=Helvetica;fontSize=13;fontColor=default;labelBackgroundColor=none;spacing=0;spacingTop=0;spacingBottom=-5;fillColor=none;" parent="DKlUDa0g7rmCu-vv5rfz-188" vertex="1">
          <mxGeometry x="1140" y="140" width="40" height="20" as="geometry" />
        </mxCell>
        <mxCell id="bMIZUlVMKYhtr8G9Qs2D-80" value="●●○" style="text;align=center;verticalAlign=middle;rounded=0;fontFamily=Helvetica;fontSize=13;fontColor=default;labelBackgroundColor=none;spacing=0;spacingTop=0;spacingBottom=-5;fillColor=none;" parent="DKlUDa0g7rmCu-vv5rfz-188" vertex="1">
          <mxGeometry x="1140" y="360" width="40" height="20" as="geometry" />
        </mxCell>
        <mxCell id="bMIZUlVMKYhtr8G9Qs2D-81" value="●●○" style="text;align=center;verticalAlign=middle;rounded=0;fontFamily=Helvetica;fontSize=13;fontColor=default;labelBackgroundColor=none;spacing=0;spacingTop=0;spacingBottom=-5;fillColor=none;" parent="DKlUDa0g7rmCu-vv5rfz-188" vertex="1">
          <mxGeometry x="740" y="360" width="40" height="20" as="geometry" />
        </mxCell>
        <mxCell id="bMIZUlVMKYhtr8G9Qs2D-82" value="●●○" style="text;align=center;verticalAlign=middle;rounded=0;fontFamily=Helvetica;fontSize=13;fontColor=default;labelBackgroundColor=none;spacing=0;spacingTop=0;spacingBottom=-5;fillColor=none;" parent="DKlUDa0g7rmCu-vv5rfz-188" vertex="1">
          <mxGeometry x="740" y="420" width="40" height="20" as="geometry" />
        </mxCell>
        <mxCell id="bMIZUlVMKYhtr8G9Qs2D-83" value="●●○" style="text;align=center;verticalAlign=middle;rounded=0;fontFamily=Helvetica;fontSize=13;fontColor=default;labelBackgroundColor=none;spacing=0;spacingTop=0;spacingBottom=-5;fillColor=none;" parent="DKlUDa0g7rmCu-vv5rfz-188" vertex="1">
          <mxGeometry x="340" y="360" width="40" height="20" as="geometry" />
        </mxCell>
        <mxCell id="bMIZUlVMKYhtr8G9Qs2D-84" value="●●○" style="text;align=center;verticalAlign=middle;rounded=0;fontFamily=Helvetica;fontSize=13;fontColor=default;labelBackgroundColor=none;spacing=0;spacingTop=0;spacingBottom=-5;fillColor=none;" parent="DKlUDa0g7rmCu-vv5rfz-188" vertex="1">
          <mxGeometry x="340" y="240" width="40" height="20" as="geometry" />
        </mxCell>
        <mxCell id="bMIZUlVMKYhtr8G9Qs2D-85" value="●●○" style="text;align=center;verticalAlign=middle;rounded=0;fontFamily=Helvetica;fontSize=13;fontColor=default;labelBackgroundColor=none;spacing=0;spacingTop=0;spacingBottom=-5;fillColor=none;" parent="DKlUDa0g7rmCu-vv5rfz-188" vertex="1">
          <mxGeometry x="340" y="640" width="40" height="20" as="geometry" />
        </mxCell>
        <mxCell id="bMIZUlVMKYhtr8G9Qs2D-86" value="●●○" style="text;align=center;verticalAlign=middle;rounded=0;fontFamily=Helvetica;fontSize=13;fontColor=default;labelBackgroundColor=none;spacing=0;spacingTop=0;spacingBottom=-5;fillColor=none;" parent="DKlUDa0g7rmCu-vv5rfz-188" vertex="1">
          <mxGeometry x="540" y="680" width="40" height="20" as="geometry" />
        </mxCell>
        <mxCell id="bMIZUlVMKYhtr8G9Qs2D-87" value="●●○" style="text;align=center;verticalAlign=middle;rounded=0;fontFamily=Helvetica;fontSize=13;fontColor=default;labelBackgroundColor=none;spacing=0;spacingTop=0;spacingBottom=-5;fillColor=none;" parent="DKlUDa0g7rmCu-vv5rfz-188" vertex="1">
          <mxGeometry x="740" y="660" width="40" height="20" as="geometry" />
        </mxCell>
        <mxCell id="bMIZUlVMKYhtr8G9Qs2D-88" value="●●○" style="text;align=center;verticalAlign=middle;rounded=0;fontFamily=Helvetica;fontSize=13;fontColor=default;labelBackgroundColor=none;spacing=0;spacingTop=0;spacingBottom=-5;fillColor=none;" parent="DKlUDa0g7rmCu-vv5rfz-188" vertex="1">
          <mxGeometry x="740" y="520" width="40" height="20" as="geometry" />
        </mxCell>
        <mxCell id="bMIZUlVMKYhtr8G9Qs2D-89" value="●●○" style="text;align=center;verticalAlign=middle;rounded=0;fontFamily=Helvetica;fontSize=13;fontColor=#FFFFFF;labelBackgroundColor=none;spacing=0;spacingTop=0;spacingBottom=-5;fillColor=none;" parent="DKlUDa0g7rmCu-vv5rfz-188" vertex="1">
          <mxGeometry x="940" y="620" width="40" height="20" as="geometry" />
        </mxCell>
        <mxCell id="bMIZUlVMKYhtr8G9Qs2D-90" value="●●○" style="text;align=center;verticalAlign=middle;rounded=0;fontFamily=Helvetica;fontSize=13;fontColor=#FFFFFF;labelBackgroundColor=none;spacing=0;spacingTop=0;spacingBottom=-5;fillColor=none;" parent="DKlUDa0g7rmCu-vv5rfz-188" vertex="1">
          <mxGeometry x="1140" y="710" width="40" height="20" as="geometry" />
        </mxCell>
        <mxCell id="bMIZUlVMKYhtr8G9Qs2D-91" value="●●○" style="text;align=center;verticalAlign=middle;rounded=0;fontFamily=Helvetica;fontSize=13;fontColor=default;labelBackgroundColor=none;spacing=0;spacingTop=0;spacingBottom=-5;fillColor=none;" parent="DKlUDa0g7rmCu-vv5rfz-188" vertex="1">
          <mxGeometry x="140" y="330" width="40" height="20" as="geometry" />
        </mxCell>
        <mxCell id="bMIZUlVMKYhtr8G9Qs2D-92" value="●●○" style="text;align=center;verticalAlign=middle;rounded=0;fontFamily=Helvetica;fontSize=13;fontColor=default;labelBackgroundColor=none;spacing=0;spacingTop=0;spacingBottom=-5;fillColor=none;" parent="DKlUDa0g7rmCu-vv5rfz-188" vertex="1">
          <mxGeometry x="940" y="420" width="40" height="20" as="geometry" />
        </mxCell>
        <mxCell id="bMIZUlVMKYhtr8G9Qs2D-93" value="●●●" style="text;align=center;verticalAlign=middle;rounded=0;fontFamily=Helvetica;fontSize=13;fontColor=default;labelBackgroundColor=none;spacing=0;spacingTop=0;spacingBottom=-5;fillColor=none;" parent="DKlUDa0g7rmCu-vv5rfz-188" vertex="1">
          <mxGeometry x="740" y="260" width="40" height="20" as="geometry" />
        </mxCell>
        <mxCell id="DKlUDa0g7rmCu-vv5rfz-245" value="Circle Pre-requisites text" style="locked=1;" parent="0" visible="0" />
        <mxCell id="CoPnodNDMeY2YXLun1O6-123" value="Circle 30" style="text;align=right;verticalAlign=bottom;resizable=0;points=[];autosize=1;strokeColor=none;fillColor=none;fontFamily=Georgia;fontSize=13;fontColor=#667788;labelBackgroundColor=none;fontStyle=3" parent="DKlUDa0g7rmCu-vv5rfz-245" vertex="1">
          <mxGeometry x="1110" y="90" width="70" height="30" as="geometry" />
        </mxCell>
        <mxCell id="bMIZUlVMKYhtr8G9Qs2D-94" value="Circle 50" style="text;align=right;verticalAlign=bottom;resizable=0;points=[];autosize=1;strokeColor=none;fillColor=none;fontFamily=Georgia;fontSize=13;fontColor=#667788;labelBackgroundColor=none;fontStyle=3" parent="DKlUDa0g7rmCu-vv5rfz-245" vertex="1">
          <mxGeometry x="1110" y="30" width="70" height="30" as="geometry" />
        </mxCell>
        <mxCell id="bMIZUlVMKYhtr8G9Qs2D-95" value="Circle 50" style="text;align=right;verticalAlign=bottom;resizable=0;points=[];autosize=1;strokeColor=none;fillColor=none;fontFamily=Georgia;fontSize=13;fontColor=#667788;labelBackgroundColor=none;fontStyle=3" parent="DKlUDa0g7rmCu-vv5rfz-245" vertex="1">
          <mxGeometry x="1110" y="310" width="70" height="30" as="geometry" />
        </mxCell>
        <mxCell id="bMIZUlVMKYhtr8G9Qs2D-96" value="Circle 20" style="text;align=right;verticalAlign=bottom;resizable=0;points=[];autosize=1;strokeColor=none;fillColor=none;fontFamily=Georgia;fontSize=13;fontColor=#667788;labelBackgroundColor=none;fontStyle=3" parent="DKlUDa0g7rmCu-vv5rfz-245" vertex="1">
          <mxGeometry x="710" y="610" width="70" height="30" as="geometry" />
        </mxCell>
        <mxCell id="bMIZUlVMKYhtr8G9Qs2D-97" value="Circle 10" style="text;align=right;verticalAlign=bottom;resizable=0;points=[];autosize=1;strokeColor=none;fillColor=none;fontFamily=Georgia;fontSize=13;fontColor=#667788;labelBackgroundColor=none;fontStyle=3" parent="DKlUDa0g7rmCu-vv5rfz-245" vertex="1">
          <mxGeometry x="510" y="630" width="70" height="30" as="geometry" />
        </mxCell>
        <mxCell id="bMIZUlVMKYhtr8G9Qs2D-99" value="Circle 30" style="text;align=right;verticalAlign=bottom;resizable=0;points=[];autosize=1;strokeColor=none;fillColor=none;fontFamily=Georgia;fontSize=13;fontColor=#667788;labelBackgroundColor=none;fontStyle=3" parent="DKlUDa0g7rmCu-vv5rfz-245" vertex="1">
          <mxGeometry x="1110" y="660" width="70" height="30" as="geometry" />
        </mxCell>
        <mxCell id="bMIZUlVMKYhtr8G9Qs2D-98" value="Circle 40" style="text;align=right;verticalAlign=bottom;resizable=0;points=[];autosize=1;strokeColor=none;fillColor=none;fontFamily=Georgia;fontSize=13;fontColor=#667788;labelBackgroundColor=none;fontStyle=3" parent="DKlUDa0g7rmCu-vv5rfz-245" vertex="1">
          <mxGeometry x="1110" y="570" width="70" height="30" as="geometry" />
        </mxCell>
        <mxCell id="DKlUDa0g7rmCu-vv5rfz-268" value="Spell Pre-requisites text" style="locked=1;" parent="0" visible="0" />
        <mxCell id="CoPnodNDMeY2YXLun1O6-134" value="Requires DIG or HOJ" style="text;align=left;verticalAlign=top;resizable=0;points=[];autosize=1;strokeColor=none;fillColor=none;fontFamily=Georgia;fontSize=13;fontColor=#667788;labelBackgroundColor=none;spacing=0;spacingBottom=0;spacingTop=-4;fontStyle=3" parent="DKlUDa0g7rmCu-vv5rfz-268" vertex="1">
          <mxGeometry x="620" y="600" width="130" height="20" as="geometry" />
        </mxCell>
        <mxCell id="bMIZUlVMKYhtr8G9Qs2D-101" value="Requires RW or Courage" style="text;align=left;verticalAlign=top;resizable=0;points=[];autosize=1;strokeColor=none;fillColor=none;fontFamily=Georgia;fontSize=13;fontColor=#667788;labelBackgroundColor=none;spacing=0;spacingBottom=0;spacingTop=-4;fontStyle=3" parent="DKlUDa0g7rmCu-vv5rfz-268" vertex="1">
          <mxGeometry x="620" y="380" width="150" height="20" as="geometry" />
        </mxCell>
        <mxCell id="bMIZUlVMKYhtr8G9Qs2D-103" value="Requires RUE or DA" style="text;align=left;verticalAlign=top;resizable=0;points=[];autosize=1;strokeColor=none;fillColor=none;fontFamily=Georgia;fontSize=13;fontColor=#667788;labelBackgroundColor=none;spacing=0;spacingBottom=0;spacingTop=-4;fontStyle=3" parent="DKlUDa0g7rmCu-vv5rfz-268" vertex="1">
          <mxGeometry x="820" y="440" width="130" height="20" as="geometry" />
        </mxCell>
        <mxCell id="-dR2T00Uhgw3VuPTZwKf-566" value="Transparency" style="locked=1;" parent="0" visible="0" />
        <mxCell id="u5JJ2iUTMlOG-NKWuYbm-143" value="Spell Name Text" style="locked=1;" parent="0" visible="0" />
        <mxCell id="u5JJ2iUTMlOG-NKWuYbm-145" style="edgeStyle=orthogonalEdgeStyle;shape=connector;curved=0;rounded=1;jumpStyle=arc;orthogonalLoop=1;jettySize=auto;html=1;exitX=1;exitY=0;exitDx=0;exitDy=0;dashed=1;strokeColor=#667788;strokeWidth=2;align=center;verticalAlign=middle;fontFamily=Helvetica;fontSize=11;fontColor=default;labelBackgroundColor=default;endArrow=none;endFill=0;" parent="u5JJ2iUTMlOG-NKWuYbm-143" edge="1">
          <mxGeometry relative="1" as="geometry">
            <mxPoint x="420" y="580" as="targetPoint" />
            <Array as="points">
              <mxPoint x="400" y="420" />
              <mxPoint x="400" y="580" />
            </Array>
          </mxGeometry>
        </mxCell>
        <mxCell id="u5JJ2iUTMlOG-NKWuYbm-155" value="Aspirant&#39;s Aegis" style="rounded=1;strokeWidth=2;strokeColor=#667788;textShadow=0;labelBackgroundColor=none;whiteSpace=wrap;fontSize=15;fontFamily=Georgia;fillColor=#147A6D;fontColor=#FFFFFF;" parent="u5JJ2iUTMlOG-NKWuYbm-143" vertex="1">
          <mxGeometry x="20" y="90" width="160" height="40" as="geometry" />
        </mxCell>
        <mxCell id="u5JJ2iUTMlOG-NKWuYbm-157" value="Vessel of Salvation" style="rounded=1;strokeWidth=2;strokeColor=#667788;textShadow=0;labelBackgroundColor=none;whiteSpace=wrap;fontSize=15;fontFamily=Georgia;fillColor=#B3D56A;fontStyle=1" parent="u5JJ2iUTMlOG-NKWuYbm-143" vertex="1">
          <mxGeometry x="220" y="60" width="160" height="40" as="geometry" />
        </mxCell>
        <mxCell id="u5JJ2iUTMlOG-NKWuYbm-158" value="Tamsine&#39;s Kiss" style="rounded=1;strokeWidth=2;strokeColor=#667788;textShadow=0;labelBackgroundColor=none;whiteSpace=wrap;fontSize=15;fontFamily=Georgia;fillColor=#147A6D;fontStyle=1;fontColor=#FFFFFF;" parent="u5JJ2iUTMlOG-NKWuYbm-143" vertex="1">
          <mxGeometry x="420" y="90" width="160" height="40" as="geometry" />
        </mxCell>
        <mxCell id="u5JJ2iUTMlOG-NKWuYbm-159" value="Alamhif&#39;s Gift" style="rounded=1;strokeWidth=2;strokeColor=#667788;textShadow=0;labelBackgroundColor=none;whiteSpace=wrap;fontSize=15;fontFamily=Georgia;fillColor=#B3D56A;fontStyle=1" parent="u5JJ2iUTMlOG-NKWuYbm-143" vertex="1">
          <mxGeometry x="1020" y="60" width="160" height="40" as="geometry" />
        </mxCell>
        <mxCell id="u5JJ2iUTMlOG-NKWuYbm-160" value="Crusader&#39;s Challenge" style="rounded=1;strokeWidth=2;strokeColor=#667788;textShadow=0;labelBackgroundColor=none;whiteSpace=wrap;fontSize=15;fontFamily=Georgia;fillColor=#AAC8EB;fontStyle=1;gradientColor=#B3D56A;gradientDirection=east;" parent="u5JJ2iUTMlOG-NKWuYbm-143" vertex="1">
          <mxGeometry x="1020" y="120" width="160" height="40" as="geometry" />
        </mxCell>
        <mxCell id="u5JJ2iUTMlOG-NKWuYbm-166" value="Heroic Strength" style="rounded=1;strokeWidth=2;strokeColor=#667788;textShadow=0;labelBackgroundColor=none;whiteSpace=wrap;fontSize=15;fontFamily=Georgia;fillColor=#AAC8EB;" parent="u5JJ2iUTMlOG-NKWuYbm-143" vertex="1">
          <mxGeometry x="20" y="310" width="160" height="40" as="geometry" />
        </mxCell>
        <mxCell id="u5JJ2iUTMlOG-NKWuYbm-169" value="Courage" style="rounded=1;strokeWidth=2;strokeColor=#667788;textShadow=0;labelBackgroundColor=none;whiteSpace=wrap;fontSize=15;fontFamily=Georgia;fillColor=#147A6D;fontColor=#FFFFFF;" parent="u5JJ2iUTMlOG-NKWuYbm-143" vertex="1">
          <mxGeometry x="220" y="280" width="160" height="40" as="geometry" />
        </mxCell>
        <mxCell id="u5JJ2iUTMlOG-NKWuYbm-170" value="Divine Guidance" style="rounded=1;strokeWidth=2;strokeColor=#667788;textShadow=0;labelBackgroundColor=none;whiteSpace=wrap;fontSize=15;fontFamily=Georgia;fillColor=#AAC8EB;" parent="u5JJ2iUTMlOG-NKWuYbm-143" vertex="1">
          <mxGeometry x="220" y="400" width="160" height="40" as="geometry" />
        </mxCell>
        <mxCell id="u5JJ2iUTMlOG-NKWuYbm-171" value="Righteous Wrath" style="rounded=1;strokeWidth=2;strokeColor=#667788;textShadow=0;labelBackgroundColor=none;whiteSpace=wrap;fontSize=15;fontFamily=Georgia;fillColor=#AAC8EB;" parent="u5JJ2iUTMlOG-NKWuYbm-143" vertex="1">
          <mxGeometry x="220" y="340" width="160" height="40" as="geometry" />
        </mxCell>
        <mxCell id="u5JJ2iUTMlOG-NKWuYbm-173" value="Sentinel&#39;s Resolve" style="rounded=1;strokeWidth=2;strokeColor=#667788;textShadow=0;labelBackgroundColor=none;whiteSpace=wrap;fontSize=15;fontFamily=Georgia;fillColor=#AAC8EB;" parent="u5JJ2iUTMlOG-NKWuYbm-143" vertex="1">
          <mxGeometry x="220" y="220" width="160" height="40" as="geometry" />
        </mxCell>
        <mxCell id="u5JJ2iUTMlOG-NKWuYbm-175" value="Anti-Stun" style="rounded=1;strokeWidth=2;strokeColor=#667788;textShadow=0;labelBackgroundColor=none;whiteSpace=wrap;fontSize=15;fontFamily=Georgia;fillColor=#B3D56A;" parent="u5JJ2iUTMlOG-NKWuYbm-143" vertex="1">
          <mxGeometry x="620" y="340" width="160" height="40" as="geometry" />
        </mxCell>
        <mxCell id="u5JJ2iUTMlOG-NKWuYbm-177" value="Divine Armor" style="rounded=1;strokeWidth=2;strokeColor=#667788;textShadow=0;labelBackgroundColor=none;whiteSpace=wrap;fontSize=15;fontFamily=Georgia;fillColor=#B3D56A;fontStyle=1" parent="u5JJ2iUTMlOG-NKWuYbm-143" vertex="1">
          <mxGeometry x="620" y="240" width="160" height="40" as="geometry" />
        </mxCell>
        <mxCell id="u5JJ2iUTMlOG-NKWuYbm-178" value="Bond Armaments" style="rounded=1;strokeWidth=2;strokeColor=#667788;textShadow=0;labelBackgroundColor=none;whiteSpace=wrap;fontSize=15;fontFamily=Georgia;fillColor=#B3D56A;fontStyle=1" parent="u5JJ2iUTMlOG-NKWuYbm-143" vertex="1">
          <mxGeometry x="820" y="400" width="160" height="40" as="geometry" />
        </mxCell>
        <mxCell id="u5JJ2iUTMlOG-NKWuYbm-180" value="Marshal Order" style="rounded=1;strokeWidth=2;strokeColor=#667788;textShadow=0;labelBackgroundColor=none;whiteSpace=wrap;fontSize=15;fontFamily=Georgia;fillColor=#AAC8EB;fontStyle=1" parent="u5JJ2iUTMlOG-NKWuYbm-143" vertex="1">
          <mxGeometry x="620" y="400" width="160" height="40" as="geometry" />
        </mxCell>
        <mxCell id="u5JJ2iUTMlOG-NKWuYbm-181" value="Truffenyi&#39;s Rally" style="rounded=1;strokeWidth=2;strokeColor=#667788;textShadow=0;labelBackgroundColor=none;whiteSpace=wrap;fontSize=15;fontFamily=Georgia;fillColor=#AAC8EB;fontStyle=1;gradientColor=#B3D56A;gradientDirection=east;" parent="u5JJ2iUTMlOG-NKWuYbm-143" vertex="1">
          <mxGeometry x="1020" y="340" width="160" height="40" as="geometry" />
        </mxCell>
        <mxCell id="u5JJ2iUTMlOG-NKWuYbm-183" value="Veteran Insight" style="rounded=1;strokeWidth=2;strokeColor=#667788;textShadow=0;labelBackgroundColor=none;whiteSpace=wrap;fontSize=15;fontFamily=Georgia;fillColor=#D5D0CA;fontStyle=1" parent="u5JJ2iUTMlOG-NKWuYbm-143" vertex="1">
          <mxGeometry x="420" y="240" width="160" height="40" as="geometry" />
        </mxCell>
        <mxCell id="u5JJ2iUTMlOG-NKWuYbm-184" value="Soldier&#39;s Prayer" style="rounded=1;strokeWidth=2;strokeColor=#667788;textShadow=0;labelBackgroundColor=none;whiteSpace=wrap;fontSize=15;fontFamily=Georgia;fillColor=#147A6D;fontStyle=0;fontColor=#FFFFFF;" parent="u5JJ2iUTMlOG-NKWuYbm-143" vertex="1">
          <mxGeometry x="820" y="220" width="160" height="40" as="geometry" />
        </mxCell>
        <mxCell id="u5JJ2iUTMlOG-NKWuYbm-189" value="Stun Foe" style="rounded=1;strokeWidth=2;strokeColor=#667788;textShadow=0;labelBackgroundColor=none;whiteSpace=wrap;fontSize=15;fontFamily=Georgia;fillColor=#EBCD00;" parent="u5JJ2iUTMlOG-NKWuYbm-143" vertex="1">
          <mxGeometry x="20" y="620" width="160" height="40" as="geometry" />
        </mxCell>
        <mxCell id="u5JJ2iUTMlOG-NKWuYbm-192" value="Halt" style="rounded=1;strokeWidth=2;strokeColor=#667788;textShadow=0;labelBackgroundColor=none;whiteSpace=wrap;fontSize=15;fontFamily=Georgia;fillColor=#EBCD00;" parent="u5JJ2iUTMlOG-NKWuYbm-143" vertex="1">
          <mxGeometry x="220" y="620" width="160" height="40" as="geometry" />
        </mxCell>
        <mxCell id="u5JJ2iUTMlOG-NKWuYbm-195" value="Footman&#39;s Strike" style="rounded=1;strokeWidth=2;strokeColor=#667788;textShadow=0;labelBackgroundColor=none;whiteSpace=wrap;fontSize=15;fontFamily=Georgia;fillColor=#E80538;fontColor=#FFFFFF;" parent="u5JJ2iUTMlOG-NKWuYbm-143" vertex="1">
          <mxGeometry x="420" y="590" width="160" height="40" as="geometry" />
        </mxCell>
        <mxCell id="u5JJ2iUTMlOG-NKWuYbm-196" value="Shatter" style="rounded=1;strokeWidth=2;strokeColor=#667788;textShadow=0;labelBackgroundColor=none;whiteSpace=wrap;fontSize=15;fontFamily=Georgia;fillColor=#EBCD00;" parent="u5JJ2iUTMlOG-NKWuYbm-143" vertex="1">
          <mxGeometry x="420" y="660" width="160" height="40" as="geometry" />
        </mxCell>
        <mxCell id="u5JJ2iUTMlOG-NKWuYbm-197" value="Hands of Justice" style="rounded=1;strokeWidth=2;strokeColor=#667788;textShadow=0;labelBackgroundColor=none;whiteSpace=wrap;fontSize=15;fontFamily=Georgia;fillColor=#B3D56A;" parent="u5JJ2iUTMlOG-NKWuYbm-143" vertex="1">
          <mxGeometry x="220" y="560" width="160" height="40" as="geometry" />
        </mxCell>
        <mxCell id="u5JJ2iUTMlOG-NKWuYbm-198" value="Clarity" style="rounded=1;strokeWidth=2;strokeColor=#667788;textShadow=0;labelBackgroundColor=none;whiteSpace=wrap;fontSize=15;fontFamily=Georgia;fillColor=#AAC8EB;" parent="u5JJ2iUTMlOG-NKWuYbm-143" vertex="1">
          <mxGeometry x="620" y="560" width="160" height="40" as="geometry" />
        </mxCell>
        <mxCell id="u5JJ2iUTMlOG-NKWuYbm-199" value="Banner of Truce" style="rounded=1;strokeWidth=2;strokeColor=#667788;textShadow=0;labelBackgroundColor=none;whiteSpace=wrap;fontSize=15;fontFamily=Georgia;fillColor=#B3D56A;fontStyle=1" parent="u5JJ2iUTMlOG-NKWuYbm-143" vertex="1">
          <mxGeometry x="620" y="640" width="160" height="40" as="geometry" />
        </mxCell>
        <mxCell id="u5JJ2iUTMlOG-NKWuYbm-200" value="Rutilor&#39;s Edge" style="rounded=1;strokeWidth=2;strokeColor=#667788;textShadow=0;labelBackgroundColor=none;whiteSpace=wrap;fontSize=15;fontFamily=Georgia;fillColor=#B3D56A;" parent="u5JJ2iUTMlOG-NKWuYbm-143" vertex="1">
          <mxGeometry x="620" y="500" width="160" height="40" as="geometry" />
        </mxCell>
        <mxCell id="u5JJ2iUTMlOG-NKWuYbm-202" value="Rebuke" style="rounded=1;strokeWidth=2;strokeColor=#667788;textShadow=0;labelBackgroundColor=none;whiteSpace=wrap;fontSize=15;fontFamily=Georgia;fillColor=#E80538;fontColor=#FFFFFF;" parent="u5JJ2iUTMlOG-NKWuYbm-143" vertex="1">
          <mxGeometry x="820" y="600" width="160" height="40" as="geometry" />
        </mxCell>
        <mxCell id="u5JJ2iUTMlOG-NKWuYbm-203" value="Holy Warrior" style="rounded=1;strokeWidth=2;strokeColor=#667788;textShadow=0;labelBackgroundColor=none;whiteSpace=wrap;fontSize=15;fontFamily=Georgia;fillColor=#147A6D;fontStyle=1;fontColor=#FFFFFF;gradientColor=#B3D56A;gradientDirection=east;" parent="u5JJ2iUTMlOG-NKWuYbm-143" vertex="1">
          <mxGeometry x="1020" y="690" width="160" height="40" as="geometry" />
        </mxCell>
        <mxCell id="u5JJ2iUTMlOG-NKWuYbm-204" value="Smite Horde" style="rounded=1;strokeWidth=2;strokeColor=#667788;textShadow=0;labelBackgroundColor=none;whiteSpace=wrap;fontSize=15;fontFamily=Georgia;fillColor=#E80538;fontColor=#FFFFFF;" parent="u5JJ2iUTMlOG-NKWuYbm-143" vertex="1">
          <mxGeometry x="1020" y="600" width="160" height="40" as="geometry" />
        </mxCell>
      </root>
    </mxGraphModel>
  </diagram>
</mxfile>
